G04 #@! TF.GenerationSoftware,KiCad,Pcbnew,7.0.10-7.0.10~ubuntu22.04.1*
G04 #@! TF.CreationDate,2024-01-30T11:00:35+01:00*
G04 #@! TF.ProjectId,rocketry_circuit,726f636b-6574-4727-995f-636972637569,rev?*
G04 #@! TF.SameCoordinates,Original*
G04 #@! TF.FileFunction,Legend,Bot*
G04 #@! TF.FilePolarity,Positive*
%FSLAX46Y46*%
G04 Gerber Fmt 4.6, Leading zero omitted, Abs format (unit mm)*
G04 Created by KiCad (PCBNEW 7.0.10-7.0.10~ubuntu22.04.1) date 2024-01-30 11:00:35*
%MOMM*%
%LPD*%
G01*
G04 APERTURE LIST*
%ADD10C,3.200000*%
%ADD11R,1.700000X1.700000*%
%ADD12O,1.700000X1.700000*%
%ADD13C,1.400000*%
%ADD14O,1.400000X1.400000*%
%ADD15C,0.900000*%
%ADD16R,2.000000X2.000000*%
%ADD17C,2.000000*%
%ADD18R,1.600000X1.600000*%
%ADD19O,1.600000X1.600000*%
G04 APERTURE END LIST*
%LPC*%
D10*
X33500000Y-154000000D03*
D11*
X23037000Y-140730200D03*
D12*
X25577000Y-140730200D03*
D13*
X16184000Y-78246200D03*
D14*
X21264000Y-78246200D03*
D11*
X20610000Y-105670000D03*
D12*
X23150000Y-105670000D03*
X25690000Y-105670000D03*
X28230000Y-105670000D03*
D10*
X33500000Y-15000000D03*
D15*
X20550968Y-21518155D03*
X28550968Y-21518155D03*
D16*
X16956000Y-66054200D03*
D17*
X24556000Y-66054200D03*
D10*
X15000000Y-15000000D03*
D13*
X25836000Y-78246200D03*
D14*
X30916000Y-78246200D03*
D11*
X28230000Y-99574000D03*
D12*
X25690000Y-99574000D03*
X23150000Y-99574000D03*
X20610000Y-99574000D03*
D10*
X15000000Y-154000000D03*
D18*
X16692000Y-112790200D03*
D19*
X16692000Y-115330200D03*
X16692000Y-117870200D03*
X16692000Y-120410200D03*
X16692000Y-122950200D03*
X16692000Y-125490200D03*
X16692000Y-128030200D03*
X16692000Y-130570200D03*
X16692000Y-133110200D03*
X16692000Y-135650200D03*
X16692000Y-138190200D03*
X16692000Y-140730200D03*
X16692000Y-143270200D03*
X16692000Y-145810200D03*
X16692000Y-148350200D03*
X31932000Y-148350200D03*
X31932000Y-145810200D03*
X31932000Y-143270200D03*
X31932000Y-140730200D03*
X31932000Y-138190200D03*
X31932000Y-135650200D03*
X31932000Y-133110200D03*
X31932000Y-130570200D03*
X31932000Y-128030200D03*
X31932000Y-125490200D03*
X31932000Y-122950200D03*
X31932000Y-120410200D03*
X31932000Y-117870200D03*
X31932000Y-115330200D03*
X31932000Y-112790200D03*
D12*
X31424000Y-74182200D03*
X31424000Y-71642200D03*
X31424000Y-69102200D03*
X31424000Y-66562200D03*
X31424000Y-64022200D03*
X31424000Y-61482200D03*
D11*
X31424000Y-58942200D03*
X32948000Y-85358200D03*
D12*
X30408000Y-85358200D03*
X27868000Y-85358200D03*
X25328000Y-85358200D03*
X22788000Y-85358200D03*
X20248000Y-85358200D03*
X17708000Y-85358200D03*
X15168000Y-85358200D03*
%LPD*%
M02*
