M48
; DRILL file {KiCad 7.0.10-7.0.10~ubuntu22.04.1} date mar 30 ene 2024 11:01:20
; FORMAT={-:-/ absolute / metric / decimal}
; #@! TF.CreationDate,2024-01-30T11:01:20+01:00
; #@! TF.GenerationSoftware,Kicad,Pcbnew,7.0.10-7.0.10~ubuntu22.04.1
; #@! TF.FileFunction,Plated,1,2,PTH
FMAT,2
METRIC
; #@! TA.AperFunction,Plated,PTH,ViaDrill
T1C0.400
; #@! TA.AperFunction,Plated,PTH,ComponentDrill
T2C0.700
; #@! TA.AperFunction,Plated,PTH,ComponentDrill
T3C1.000
%
G90
G05
T1
X16.893Y-42.523
X20.36Y-33.262
X21.512Y-41.744
X25.473Y-35.479
T2
X16.184Y-78.246
X21.264Y-78.246
X25.836Y-78.246
X30.916Y-78.246
T3
X15.168Y-85.358
X16.692Y-112.79
X16.692Y-115.33
X16.692Y-117.87
X16.692Y-120.41
X16.692Y-122.95
X16.692Y-125.49
X16.692Y-128.03
X16.692Y-130.57
X16.692Y-133.11
X16.692Y-135.65
X16.692Y-138.19
X16.692Y-140.73
X16.692Y-143.27
X16.692Y-145.81
X16.692Y-148.35
X16.956Y-66.054
X17.708Y-85.358
X20.248Y-85.358
X20.61Y-99.574
X20.61Y-105.67
X22.788Y-85.358
X23.037Y-140.73
X23.15Y-99.574
X23.15Y-105.67
X24.556Y-66.054
X25.328Y-85.358
X25.577Y-140.73
X25.69Y-99.574
X25.69Y-105.67
X27.868Y-85.358
X28.23Y-99.574
X28.23Y-105.67
X30.408Y-85.358
X31.424Y-58.942
X31.424Y-61.482
X31.424Y-64.022
X31.424Y-66.562
X31.424Y-69.102
X31.424Y-71.642
X31.424Y-74.182
X31.932Y-112.79
X31.932Y-115.33
X31.932Y-117.87
X31.932Y-120.41
X31.932Y-122.95
X31.932Y-125.49
X31.932Y-128.03
X31.932Y-130.57
X31.932Y-133.11
X31.932Y-135.65
X31.932Y-138.19
X31.932Y-140.73
X31.932Y-143.27
X31.932Y-145.81
X31.932Y-148.35
X32.948Y-85.358
M30
