G04 #@! TF.GenerationSoftware,KiCad,Pcbnew,7.0.10-7.0.10~ubuntu22.04.1*
G04 #@! TF.CreationDate,2024-01-30T11:00:35+01:00*
G04 #@! TF.ProjectId,rocketry_circuit,726f636b-6574-4727-995f-636972637569,rev?*
G04 #@! TF.SameCoordinates,Original*
G04 #@! TF.FileFunction,Legend,Top*
G04 #@! TF.FilePolarity,Positive*
%FSLAX46Y46*%
G04 Gerber Fmt 4.6, Leading zero omitted, Abs format (unit mm)*
G04 Created by KiCad (PCBNEW 7.0.10-7.0.10~ubuntu22.04.1) date 2024-01-30 11:00:35*
%MOMM*%
%LPD*%
G01*
G04 APERTURE LIST*
G04 Aperture macros list*
%AMRoundRect*
0 Rectangle with rounded corners*
0 $1 Rounding radius*
0 $2 $3 $4 $5 $6 $7 $8 $9 X,Y pos of 4 corners*
0 Add a 4 corners polygon primitive as box body*
4,1,4,$2,$3,$4,$5,$6,$7,$8,$9,$2,$3,0*
0 Add four circle primitives for the rounded corners*
1,1,$1+$1,$2,$3*
1,1,$1+$1,$4,$5*
1,1,$1+$1,$6,$7*
1,1,$1+$1,$8,$9*
0 Add four rect primitives between the rounded corners*
20,1,$1+$1,$2,$3,$4,$5,0*
20,1,$1+$1,$4,$5,$6,$7,0*
20,1,$1+$1,$6,$7,$8,$9,0*
20,1,$1+$1,$8,$9,$2,$3,0*%
G04 Aperture macros list end*
%ADD10C,0.150000*%
%ADD11C,0.100000*%
%ADD12C,0.120000*%
%ADD13C,0.200000*%
%ADD14C,3.200000*%
%ADD15R,1.700000X1.700000*%
%ADD16O,1.700000X1.700000*%
%ADD17RoundRect,0.200000X-0.200000X-0.275000X0.200000X-0.275000X0.200000X0.275000X-0.200000X0.275000X0*%
%ADD18R,2.000000X1.500000*%
%ADD19R,2.000000X3.800000*%
%ADD20C,1.400000*%
%ADD21O,1.400000X1.400000*%
%ADD22RoundRect,0.250000X-0.250000X-0.475000X0.250000X-0.475000X0.250000X0.475000X-0.250000X0.475000X0*%
%ADD23RoundRect,0.075000X-0.700000X-0.075000X0.700000X-0.075000X0.700000X0.075000X-0.700000X0.075000X0*%
%ADD24RoundRect,0.225000X-0.225000X-0.250000X0.225000X-0.250000X0.225000X0.250000X-0.225000X0.250000X0*%
%ADD25C,0.900000*%
%ADD26R,0.700000X1.600000*%
%ADD27R,1.200000X2.200000*%
%ADD28R,1.600000X1.400000*%
%ADD29R,1.200000X1.400000*%
%ADD30R,2.000000X2.000000*%
%ADD31C,2.000000*%
%ADD32R,1.600000X1.600000*%
%ADD33O,1.600000X1.600000*%
G04 APERTURE END LIST*
D10*
X21962779Y-97411819D02*
X21962779Y-96411819D01*
X21962779Y-96411819D02*
X22534207Y-97411819D01*
X22534207Y-97411819D02*
X22534207Y-96411819D01*
X23010398Y-96888009D02*
X23343731Y-96888009D01*
X23486588Y-97411819D02*
X23010398Y-97411819D01*
X23010398Y-97411819D02*
X23010398Y-96411819D01*
X23010398Y-96411819D02*
X23486588Y-96411819D01*
X24105636Y-96411819D02*
X24296112Y-96411819D01*
X24296112Y-96411819D02*
X24391350Y-96459438D01*
X24391350Y-96459438D02*
X24486588Y-96554676D01*
X24486588Y-96554676D02*
X24534207Y-96745152D01*
X24534207Y-96745152D02*
X24534207Y-97078485D01*
X24534207Y-97078485D02*
X24486588Y-97268961D01*
X24486588Y-97268961D02*
X24391350Y-97364200D01*
X24391350Y-97364200D02*
X24296112Y-97411819D01*
X24296112Y-97411819D02*
X24105636Y-97411819D01*
X24105636Y-97411819D02*
X24010398Y-97364200D01*
X24010398Y-97364200D02*
X23915160Y-97268961D01*
X23915160Y-97268961D02*
X23867541Y-97078485D01*
X23867541Y-97078485D02*
X23867541Y-96745152D01*
X23867541Y-96745152D02*
X23915160Y-96554676D01*
X23915160Y-96554676D02*
X24010398Y-96459438D01*
X24010398Y-96459438D02*
X24105636Y-96411819D01*
X24962779Y-97030866D02*
X25724684Y-97030866D01*
X26629445Y-96411819D02*
X26438969Y-96411819D01*
X26438969Y-96411819D02*
X26343731Y-96459438D01*
X26343731Y-96459438D02*
X26296112Y-96507057D01*
X26296112Y-96507057D02*
X26200874Y-96649914D01*
X26200874Y-96649914D02*
X26153255Y-96840390D01*
X26153255Y-96840390D02*
X26153255Y-97221342D01*
X26153255Y-97221342D02*
X26200874Y-97316580D01*
X26200874Y-97316580D02*
X26248493Y-97364200D01*
X26248493Y-97364200D02*
X26343731Y-97411819D01*
X26343731Y-97411819D02*
X26534207Y-97411819D01*
X26534207Y-97411819D02*
X26629445Y-97364200D01*
X26629445Y-97364200D02*
X26677064Y-97316580D01*
X26677064Y-97316580D02*
X26724683Y-97221342D01*
X26724683Y-97221342D02*
X26724683Y-96983247D01*
X26724683Y-96983247D02*
X26677064Y-96888009D01*
X26677064Y-96888009D02*
X26629445Y-96840390D01*
X26629445Y-96840390D02*
X26534207Y-96792771D01*
X26534207Y-96792771D02*
X26343731Y-96792771D01*
X26343731Y-96792771D02*
X26248493Y-96840390D01*
X26248493Y-96840390D02*
X26200874Y-96888009D01*
X26200874Y-96888009D02*
X26153255Y-96983247D01*
X27153255Y-97411819D02*
X27153255Y-96411819D01*
X27153255Y-96411819D02*
X27486588Y-97126104D01*
X27486588Y-97126104D02*
X27819921Y-96411819D01*
X27819921Y-96411819D02*
X27819921Y-97411819D01*
X20256779Y-107698866D02*
X21018684Y-107698866D01*
X20637731Y-108079819D02*
X20637731Y-107317914D01*
X22616779Y-142759066D02*
X23378684Y-142759066D01*
X22997731Y-143140019D02*
X22997731Y-142378114D01*
X19879160Y-156074104D02*
X20355350Y-156074104D01*
X19783922Y-156359819D02*
X20117255Y-155359819D01*
X20117255Y-155359819D02*
X20450588Y-156359819D01*
X20641065Y-155359819D02*
X20974398Y-156359819D01*
X20974398Y-156359819D02*
X21307731Y-155359819D01*
X21641065Y-156359819D02*
X21641065Y-155359819D01*
X22307731Y-155359819D02*
X22498207Y-155359819D01*
X22498207Y-155359819D02*
X22593445Y-155407438D01*
X22593445Y-155407438D02*
X22688683Y-155502676D01*
X22688683Y-155502676D02*
X22736302Y-155693152D01*
X22736302Y-155693152D02*
X22736302Y-156026485D01*
X22736302Y-156026485D02*
X22688683Y-156216961D01*
X22688683Y-156216961D02*
X22593445Y-156312200D01*
X22593445Y-156312200D02*
X22498207Y-156359819D01*
X22498207Y-156359819D02*
X22307731Y-156359819D01*
X22307731Y-156359819D02*
X22212493Y-156312200D01*
X22212493Y-156312200D02*
X22117255Y-156216961D01*
X22117255Y-156216961D02*
X22069636Y-156026485D01*
X22069636Y-156026485D02*
X22069636Y-155693152D01*
X22069636Y-155693152D02*
X22117255Y-155502676D01*
X22117255Y-155502676D02*
X22212493Y-155407438D01*
X22212493Y-155407438D02*
X22307731Y-155359819D01*
X23164874Y-156359819D02*
X23164874Y-155359819D01*
X23164874Y-155359819D02*
X23736302Y-156359819D01*
X23736302Y-156359819D02*
X23736302Y-155359819D01*
X24212493Y-156359819D02*
X24212493Y-155359819D01*
X25260111Y-156264580D02*
X25212492Y-156312200D01*
X25212492Y-156312200D02*
X25069635Y-156359819D01*
X25069635Y-156359819D02*
X24974397Y-156359819D01*
X24974397Y-156359819D02*
X24831540Y-156312200D01*
X24831540Y-156312200D02*
X24736302Y-156216961D01*
X24736302Y-156216961D02*
X24688683Y-156121723D01*
X24688683Y-156121723D02*
X24641064Y-155931247D01*
X24641064Y-155931247D02*
X24641064Y-155788390D01*
X24641064Y-155788390D02*
X24688683Y-155597914D01*
X24688683Y-155597914D02*
X24736302Y-155502676D01*
X24736302Y-155502676D02*
X24831540Y-155407438D01*
X24831540Y-155407438D02*
X24974397Y-155359819D01*
X24974397Y-155359819D02*
X25069635Y-155359819D01*
X25069635Y-155359819D02*
X25212492Y-155407438D01*
X25212492Y-155407438D02*
X25260111Y-155455057D01*
X25641064Y-156312200D02*
X25783921Y-156359819D01*
X25783921Y-156359819D02*
X26022016Y-156359819D01*
X26022016Y-156359819D02*
X26117254Y-156312200D01*
X26117254Y-156312200D02*
X26164873Y-156264580D01*
X26164873Y-156264580D02*
X26212492Y-156169342D01*
X26212492Y-156169342D02*
X26212492Y-156074104D01*
X26212492Y-156074104D02*
X26164873Y-155978866D01*
X26164873Y-155978866D02*
X26117254Y-155931247D01*
X26117254Y-155931247D02*
X26022016Y-155883628D01*
X26022016Y-155883628D02*
X25831540Y-155836009D01*
X25831540Y-155836009D02*
X25736302Y-155788390D01*
X25736302Y-155788390D02*
X25688683Y-155740771D01*
X25688683Y-155740771D02*
X25641064Y-155645533D01*
X25641064Y-155645533D02*
X25641064Y-155550295D01*
X25641064Y-155550295D02*
X25688683Y-155455057D01*
X25688683Y-155455057D02*
X25736302Y-155407438D01*
X25736302Y-155407438D02*
X25831540Y-155359819D01*
X25831540Y-155359819D02*
X26069635Y-155359819D01*
X26069635Y-155359819D02*
X26212492Y-155407438D01*
X26402969Y-156455057D02*
X27164873Y-156455057D01*
X27260112Y-155359819D02*
X27593445Y-156359819D01*
X27593445Y-156359819D02*
X27926778Y-155359819D01*
X28450588Y-155359819D02*
X28545826Y-155359819D01*
X28545826Y-155359819D02*
X28641064Y-155407438D01*
X28641064Y-155407438D02*
X28688683Y-155455057D01*
X28688683Y-155455057D02*
X28736302Y-155550295D01*
X28736302Y-155550295D02*
X28783921Y-155740771D01*
X28783921Y-155740771D02*
X28783921Y-155978866D01*
X28783921Y-155978866D02*
X28736302Y-156169342D01*
X28736302Y-156169342D02*
X28688683Y-156264580D01*
X28688683Y-156264580D02*
X28641064Y-156312200D01*
X28641064Y-156312200D02*
X28545826Y-156359819D01*
X28545826Y-156359819D02*
X28450588Y-156359819D01*
X28450588Y-156359819D02*
X28355350Y-156312200D01*
X28355350Y-156312200D02*
X28307731Y-156264580D01*
X28307731Y-156264580D02*
X28260112Y-156169342D01*
X28260112Y-156169342D02*
X28212493Y-155978866D01*
X28212493Y-155978866D02*
X28212493Y-155740771D01*
X28212493Y-155740771D02*
X28260112Y-155550295D01*
X28260112Y-155550295D02*
X28307731Y-155455057D01*
X28307731Y-155455057D02*
X28355350Y-155407438D01*
X28355350Y-155407438D02*
X28450588Y-155359819D01*
X32546779Y-87398866D02*
X33308684Y-87398866D01*
X32927731Y-87779819D02*
X32927731Y-87017914D01*
X20196779Y-101618866D02*
X20958684Y-101618866D01*
X20577731Y-101999819D02*
X20577731Y-101237914D01*
X28712779Y-74179066D02*
X29474684Y-74179066D01*
X28712779Y-71639066D02*
X29474684Y-71639066D01*
X29093731Y-72020019D02*
X29093731Y-71258114D01*
X22108779Y-139076019D02*
X22108779Y-138076019D01*
X22108779Y-138076019D02*
X22489731Y-138076019D01*
X22489731Y-138076019D02*
X22584969Y-138123638D01*
X22584969Y-138123638D02*
X22632588Y-138171257D01*
X22632588Y-138171257D02*
X22680207Y-138266495D01*
X22680207Y-138266495D02*
X22680207Y-138409352D01*
X22680207Y-138409352D02*
X22632588Y-138504590D01*
X22632588Y-138504590D02*
X22584969Y-138552209D01*
X22584969Y-138552209D02*
X22489731Y-138599828D01*
X22489731Y-138599828D02*
X22108779Y-138599828D01*
X23299255Y-138076019D02*
X23489731Y-138076019D01*
X23489731Y-138076019D02*
X23584969Y-138123638D01*
X23584969Y-138123638D02*
X23680207Y-138218876D01*
X23680207Y-138218876D02*
X23727826Y-138409352D01*
X23727826Y-138409352D02*
X23727826Y-138742685D01*
X23727826Y-138742685D02*
X23680207Y-138933161D01*
X23680207Y-138933161D02*
X23584969Y-139028400D01*
X23584969Y-139028400D02*
X23489731Y-139076019D01*
X23489731Y-139076019D02*
X23299255Y-139076019D01*
X23299255Y-139076019D02*
X23204017Y-139028400D01*
X23204017Y-139028400D02*
X23108779Y-138933161D01*
X23108779Y-138933161D02*
X23061160Y-138742685D01*
X23061160Y-138742685D02*
X23061160Y-138409352D01*
X23061160Y-138409352D02*
X23108779Y-138218876D01*
X23108779Y-138218876D02*
X23204017Y-138123638D01*
X23204017Y-138123638D02*
X23299255Y-138076019D01*
X24061160Y-138076019D02*
X24299255Y-139076019D01*
X24299255Y-139076019D02*
X24489731Y-138361733D01*
X24489731Y-138361733D02*
X24680207Y-139076019D01*
X24680207Y-139076019D02*
X24918303Y-138076019D01*
X25299255Y-138552209D02*
X25632588Y-138552209D01*
X25775445Y-139076019D02*
X25299255Y-139076019D01*
X25299255Y-139076019D02*
X25299255Y-138076019D01*
X25299255Y-138076019D02*
X25775445Y-138076019D01*
X26775445Y-139076019D02*
X26442112Y-138599828D01*
X26204017Y-139076019D02*
X26204017Y-138076019D01*
X26204017Y-138076019D02*
X26584969Y-138076019D01*
X26584969Y-138076019D02*
X26680207Y-138123638D01*
X26680207Y-138123638D02*
X26727826Y-138171257D01*
X26727826Y-138171257D02*
X26775445Y-138266495D01*
X26775445Y-138266495D02*
X26775445Y-138409352D01*
X26775445Y-138409352D02*
X26727826Y-138504590D01*
X26727826Y-138504590D02*
X26680207Y-138552209D01*
X26680207Y-138552209D02*
X26584969Y-138599828D01*
X26584969Y-138599828D02*
X26204017Y-138599828D01*
X22296112Y-102984009D02*
X22438969Y-103031628D01*
X22438969Y-103031628D02*
X22486588Y-103079247D01*
X22486588Y-103079247D02*
X22534207Y-103174485D01*
X22534207Y-103174485D02*
X22534207Y-103317342D01*
X22534207Y-103317342D02*
X22486588Y-103412580D01*
X22486588Y-103412580D02*
X22438969Y-103460200D01*
X22438969Y-103460200D02*
X22343731Y-103507819D01*
X22343731Y-103507819D02*
X21962779Y-103507819D01*
X21962779Y-103507819D02*
X21962779Y-102507819D01*
X21962779Y-102507819D02*
X22296112Y-102507819D01*
X22296112Y-102507819D02*
X22391350Y-102555438D01*
X22391350Y-102555438D02*
X22438969Y-102603057D01*
X22438969Y-102603057D02*
X22486588Y-102698295D01*
X22486588Y-102698295D02*
X22486588Y-102793533D01*
X22486588Y-102793533D02*
X22438969Y-102888771D01*
X22438969Y-102888771D02*
X22391350Y-102936390D01*
X22391350Y-102936390D02*
X22296112Y-102984009D01*
X22296112Y-102984009D02*
X21962779Y-102984009D01*
X22962779Y-103507819D02*
X22962779Y-102507819D01*
X22962779Y-102507819D02*
X23296112Y-103222104D01*
X23296112Y-103222104D02*
X23629445Y-102507819D01*
X23629445Y-102507819D02*
X23629445Y-103507819D01*
X24105636Y-103507819D02*
X24105636Y-102507819D01*
X24105636Y-102507819D02*
X24486588Y-102507819D01*
X24486588Y-102507819D02*
X24581826Y-102555438D01*
X24581826Y-102555438D02*
X24629445Y-102603057D01*
X24629445Y-102603057D02*
X24677064Y-102698295D01*
X24677064Y-102698295D02*
X24677064Y-102841152D01*
X24677064Y-102841152D02*
X24629445Y-102936390D01*
X24629445Y-102936390D02*
X24581826Y-102984009D01*
X24581826Y-102984009D02*
X24486588Y-103031628D01*
X24486588Y-103031628D02*
X24105636Y-103031628D01*
X25058017Y-102603057D02*
X25105636Y-102555438D01*
X25105636Y-102555438D02*
X25200874Y-102507819D01*
X25200874Y-102507819D02*
X25438969Y-102507819D01*
X25438969Y-102507819D02*
X25534207Y-102555438D01*
X25534207Y-102555438D02*
X25581826Y-102603057D01*
X25581826Y-102603057D02*
X25629445Y-102698295D01*
X25629445Y-102698295D02*
X25629445Y-102793533D01*
X25629445Y-102793533D02*
X25581826Y-102936390D01*
X25581826Y-102936390D02*
X25010398Y-103507819D01*
X25010398Y-103507819D02*
X25629445Y-103507819D01*
X26200874Y-102936390D02*
X26105636Y-102888771D01*
X26105636Y-102888771D02*
X26058017Y-102841152D01*
X26058017Y-102841152D02*
X26010398Y-102745914D01*
X26010398Y-102745914D02*
X26010398Y-102698295D01*
X26010398Y-102698295D02*
X26058017Y-102603057D01*
X26058017Y-102603057D02*
X26105636Y-102555438D01*
X26105636Y-102555438D02*
X26200874Y-102507819D01*
X26200874Y-102507819D02*
X26391350Y-102507819D01*
X26391350Y-102507819D02*
X26486588Y-102555438D01*
X26486588Y-102555438D02*
X26534207Y-102603057D01*
X26534207Y-102603057D02*
X26581826Y-102698295D01*
X26581826Y-102698295D02*
X26581826Y-102745914D01*
X26581826Y-102745914D02*
X26534207Y-102841152D01*
X26534207Y-102841152D02*
X26486588Y-102888771D01*
X26486588Y-102888771D02*
X26391350Y-102936390D01*
X26391350Y-102936390D02*
X26200874Y-102936390D01*
X26200874Y-102936390D02*
X26105636Y-102984009D01*
X26105636Y-102984009D02*
X26058017Y-103031628D01*
X26058017Y-103031628D02*
X26010398Y-103126866D01*
X26010398Y-103126866D02*
X26010398Y-103317342D01*
X26010398Y-103317342D02*
X26058017Y-103412580D01*
X26058017Y-103412580D02*
X26105636Y-103460200D01*
X26105636Y-103460200D02*
X26200874Y-103507819D01*
X26200874Y-103507819D02*
X26391350Y-103507819D01*
X26391350Y-103507819D02*
X26486588Y-103460200D01*
X26486588Y-103460200D02*
X26534207Y-103412580D01*
X26534207Y-103412580D02*
X26581826Y-103317342D01*
X26581826Y-103317342D02*
X26581826Y-103126866D01*
X26581826Y-103126866D02*
X26534207Y-103031628D01*
X26534207Y-103031628D02*
X26486588Y-102984009D01*
X26486588Y-102984009D02*
X26391350Y-102936390D01*
X27200874Y-102507819D02*
X27296112Y-102507819D01*
X27296112Y-102507819D02*
X27391350Y-102555438D01*
X27391350Y-102555438D02*
X27438969Y-102603057D01*
X27438969Y-102603057D02*
X27486588Y-102698295D01*
X27486588Y-102698295D02*
X27534207Y-102888771D01*
X27534207Y-102888771D02*
X27534207Y-103126866D01*
X27534207Y-103126866D02*
X27486588Y-103317342D01*
X27486588Y-103317342D02*
X27438969Y-103412580D01*
X27438969Y-103412580D02*
X27391350Y-103460200D01*
X27391350Y-103460200D02*
X27296112Y-103507819D01*
X27296112Y-103507819D02*
X27200874Y-103507819D01*
X27200874Y-103507819D02*
X27105636Y-103460200D01*
X27105636Y-103460200D02*
X27058017Y-103412580D01*
X27058017Y-103412580D02*
X27010398Y-103317342D01*
X27010398Y-103317342D02*
X26962779Y-103126866D01*
X26962779Y-103126866D02*
X26962779Y-102888771D01*
X26962779Y-102888771D02*
X27010398Y-102698295D01*
X27010398Y-102698295D02*
X27058017Y-102603057D01*
X27058017Y-102603057D02*
X27105636Y-102555438D01*
X27105636Y-102555438D02*
X27200874Y-102507819D01*
X29261819Y-68289230D02*
X29261819Y-68765420D01*
X29261819Y-68765420D02*
X28261819Y-68765420D01*
X28261819Y-67765420D02*
X28261819Y-67574944D01*
X28261819Y-67574944D02*
X28309438Y-67479706D01*
X28309438Y-67479706D02*
X28404676Y-67384468D01*
X28404676Y-67384468D02*
X28595152Y-67336849D01*
X28595152Y-67336849D02*
X28928485Y-67336849D01*
X28928485Y-67336849D02*
X29118961Y-67384468D01*
X29118961Y-67384468D02*
X29214200Y-67479706D01*
X29214200Y-67479706D02*
X29261819Y-67574944D01*
X29261819Y-67574944D02*
X29261819Y-67765420D01*
X29261819Y-67765420D02*
X29214200Y-67860658D01*
X29214200Y-67860658D02*
X29118961Y-67955896D01*
X29118961Y-67955896D02*
X28928485Y-68003515D01*
X28928485Y-68003515D02*
X28595152Y-68003515D01*
X28595152Y-68003515D02*
X28404676Y-67955896D01*
X28404676Y-67955896D02*
X28309438Y-67860658D01*
X28309438Y-67860658D02*
X28261819Y-67765420D01*
X29261819Y-66336849D02*
X28785628Y-66670182D01*
X29261819Y-66908277D02*
X28261819Y-66908277D01*
X28261819Y-66908277D02*
X28261819Y-66527325D01*
X28261819Y-66527325D02*
X28309438Y-66432087D01*
X28309438Y-66432087D02*
X28357057Y-66384468D01*
X28357057Y-66384468D02*
X28452295Y-66336849D01*
X28452295Y-66336849D02*
X28595152Y-66336849D01*
X28595152Y-66336849D02*
X28690390Y-66384468D01*
X28690390Y-66384468D02*
X28738009Y-66432087D01*
X28738009Y-66432087D02*
X28785628Y-66527325D01*
X28785628Y-66527325D02*
X28785628Y-66908277D01*
X28976104Y-65955896D02*
X28976104Y-65479706D01*
X29261819Y-66051134D02*
X28261819Y-65717801D01*
X28261819Y-65717801D02*
X29261819Y-65384468D01*
X21600779Y-83196019D02*
X21600779Y-82196019D01*
X21600779Y-82196019D02*
X21934112Y-82910304D01*
X21934112Y-82910304D02*
X22267445Y-82196019D01*
X22267445Y-82196019D02*
X22267445Y-83196019D01*
X22743636Y-83196019D02*
X22743636Y-82196019D01*
X22743636Y-82196019D02*
X23124588Y-82196019D01*
X23124588Y-82196019D02*
X23219826Y-82243638D01*
X23219826Y-82243638D02*
X23267445Y-82291257D01*
X23267445Y-82291257D02*
X23315064Y-82386495D01*
X23315064Y-82386495D02*
X23315064Y-82529352D01*
X23315064Y-82529352D02*
X23267445Y-82624590D01*
X23267445Y-82624590D02*
X23219826Y-82672209D01*
X23219826Y-82672209D02*
X23124588Y-82719828D01*
X23124588Y-82719828D02*
X22743636Y-82719828D01*
X23743636Y-82196019D02*
X23743636Y-83005542D01*
X23743636Y-83005542D02*
X23791255Y-83100780D01*
X23791255Y-83100780D02*
X23838874Y-83148400D01*
X23838874Y-83148400D02*
X23934112Y-83196019D01*
X23934112Y-83196019D02*
X24124588Y-83196019D01*
X24124588Y-83196019D02*
X24219826Y-83148400D01*
X24219826Y-83148400D02*
X24267445Y-83100780D01*
X24267445Y-83100780D02*
X24315064Y-83005542D01*
X24315064Y-83005542D02*
X24315064Y-82196019D01*
X25219826Y-82196019D02*
X25029350Y-82196019D01*
X25029350Y-82196019D02*
X24934112Y-82243638D01*
X24934112Y-82243638D02*
X24886493Y-82291257D01*
X24886493Y-82291257D02*
X24791255Y-82434114D01*
X24791255Y-82434114D02*
X24743636Y-82624590D01*
X24743636Y-82624590D02*
X24743636Y-83005542D01*
X24743636Y-83005542D02*
X24791255Y-83100780D01*
X24791255Y-83100780D02*
X24838874Y-83148400D01*
X24838874Y-83148400D02*
X24934112Y-83196019D01*
X24934112Y-83196019D02*
X25124588Y-83196019D01*
X25124588Y-83196019D02*
X25219826Y-83148400D01*
X25219826Y-83148400D02*
X25267445Y-83100780D01*
X25267445Y-83100780D02*
X25315064Y-83005542D01*
X25315064Y-83005542D02*
X25315064Y-82767447D01*
X25315064Y-82767447D02*
X25267445Y-82672209D01*
X25267445Y-82672209D02*
X25219826Y-82624590D01*
X25219826Y-82624590D02*
X25124588Y-82576971D01*
X25124588Y-82576971D02*
X24934112Y-82576971D01*
X24934112Y-82576971D02*
X24838874Y-82624590D01*
X24838874Y-82624590D02*
X24791255Y-82672209D01*
X24791255Y-82672209D02*
X24743636Y-82767447D01*
X25934112Y-82196019D02*
X26029350Y-82196019D01*
X26029350Y-82196019D02*
X26124588Y-82243638D01*
X26124588Y-82243638D02*
X26172207Y-82291257D01*
X26172207Y-82291257D02*
X26219826Y-82386495D01*
X26219826Y-82386495D02*
X26267445Y-82576971D01*
X26267445Y-82576971D02*
X26267445Y-82815066D01*
X26267445Y-82815066D02*
X26219826Y-83005542D01*
X26219826Y-83005542D02*
X26172207Y-83100780D01*
X26172207Y-83100780D02*
X26124588Y-83148400D01*
X26124588Y-83148400D02*
X26029350Y-83196019D01*
X26029350Y-83196019D02*
X25934112Y-83196019D01*
X25934112Y-83196019D02*
X25838874Y-83148400D01*
X25838874Y-83148400D02*
X25791255Y-83100780D01*
X25791255Y-83100780D02*
X25743636Y-83005542D01*
X25743636Y-83005542D02*
X25696017Y-82815066D01*
X25696017Y-82815066D02*
X25696017Y-82576971D01*
X25696017Y-82576971D02*
X25743636Y-82386495D01*
X25743636Y-82386495D02*
X25791255Y-82291257D01*
X25791255Y-82291257D02*
X25838874Y-82243638D01*
X25838874Y-82243638D02*
X25934112Y-82196019D01*
X27172207Y-82196019D02*
X26696017Y-82196019D01*
X26696017Y-82196019D02*
X26648398Y-82672209D01*
X26648398Y-82672209D02*
X26696017Y-82624590D01*
X26696017Y-82624590D02*
X26791255Y-82576971D01*
X26791255Y-82576971D02*
X27029350Y-82576971D01*
X27029350Y-82576971D02*
X27124588Y-82624590D01*
X27124588Y-82624590D02*
X27172207Y-82672209D01*
X27172207Y-82672209D02*
X27219826Y-82767447D01*
X27219826Y-82767447D02*
X27219826Y-83005542D01*
X27219826Y-83005542D02*
X27172207Y-83100780D01*
X27172207Y-83100780D02*
X27124588Y-83148400D01*
X27124588Y-83148400D02*
X27029350Y-83196019D01*
X27029350Y-83196019D02*
X26791255Y-83196019D01*
X26791255Y-83196019D02*
X26696017Y-83148400D01*
X26696017Y-83148400D02*
X26648398Y-83100780D01*
X27838874Y-82196019D02*
X27934112Y-82196019D01*
X27934112Y-82196019D02*
X28029350Y-82243638D01*
X28029350Y-82243638D02*
X28076969Y-82291257D01*
X28076969Y-82291257D02*
X28124588Y-82386495D01*
X28124588Y-82386495D02*
X28172207Y-82576971D01*
X28172207Y-82576971D02*
X28172207Y-82815066D01*
X28172207Y-82815066D02*
X28124588Y-83005542D01*
X28124588Y-83005542D02*
X28076969Y-83100780D01*
X28076969Y-83100780D02*
X28029350Y-83148400D01*
X28029350Y-83148400D02*
X27934112Y-83196019D01*
X27934112Y-83196019D02*
X27838874Y-83196019D01*
X27838874Y-83196019D02*
X27743636Y-83148400D01*
X27743636Y-83148400D02*
X27696017Y-83100780D01*
X27696017Y-83100780D02*
X27648398Y-83005542D01*
X27648398Y-83005542D02*
X27600779Y-82815066D01*
X27600779Y-82815066D02*
X27600779Y-82576971D01*
X27600779Y-82576971D02*
X27648398Y-82386495D01*
X27648398Y-82386495D02*
X27696017Y-82291257D01*
X27696017Y-82291257D02*
X27743636Y-82243638D01*
X27743636Y-82243638D02*
X27838874Y-82196019D01*
X25156779Y-142759066D02*
X25918684Y-142759066D01*
X20161819Y-141063533D02*
X20876104Y-141063533D01*
X20876104Y-141063533D02*
X21018961Y-141111152D01*
X21018961Y-141111152D02*
X21114200Y-141206390D01*
X21114200Y-141206390D02*
X21161819Y-141349247D01*
X21161819Y-141349247D02*
X21161819Y-141444485D01*
X21161819Y-140063533D02*
X21161819Y-140634961D01*
X21161819Y-140349247D02*
X20161819Y-140349247D01*
X20161819Y-140349247D02*
X20304676Y-140444485D01*
X20304676Y-140444485D02*
X20399914Y-140539723D01*
X20399914Y-140539723D02*
X20447533Y-140634961D01*
X16314333Y-45794819D02*
X15981000Y-45318628D01*
X15742905Y-45794819D02*
X15742905Y-44794819D01*
X15742905Y-44794819D02*
X16123857Y-44794819D01*
X16123857Y-44794819D02*
X16219095Y-44842438D01*
X16219095Y-44842438D02*
X16266714Y-44890057D01*
X16266714Y-44890057D02*
X16314333Y-44985295D01*
X16314333Y-44985295D02*
X16314333Y-45128152D01*
X16314333Y-45128152D02*
X16266714Y-45223390D01*
X16266714Y-45223390D02*
X16219095Y-45271009D01*
X16219095Y-45271009D02*
X16123857Y-45318628D01*
X16123857Y-45318628D02*
X15742905Y-45318628D01*
X17171476Y-45128152D02*
X17171476Y-45794819D01*
X16933381Y-44747200D02*
X16695286Y-45461485D01*
X16695286Y-45461485D02*
X17314333Y-45461485D01*
X28878095Y-34104819D02*
X28878095Y-34914342D01*
X28878095Y-34914342D02*
X28925714Y-35009580D01*
X28925714Y-35009580D02*
X28973333Y-35057200D01*
X28973333Y-35057200D02*
X29068571Y-35104819D01*
X29068571Y-35104819D02*
X29259047Y-35104819D01*
X29259047Y-35104819D02*
X29354285Y-35057200D01*
X29354285Y-35057200D02*
X29401904Y-35009580D01*
X29401904Y-35009580D02*
X29449523Y-34914342D01*
X29449523Y-34914342D02*
X29449523Y-34104819D01*
X30449523Y-35104819D02*
X29878095Y-35104819D01*
X30163809Y-35104819D02*
X30163809Y-34104819D01*
X30163809Y-34104819D02*
X30068571Y-34247676D01*
X30068571Y-34247676D02*
X29973333Y-34342914D01*
X29973333Y-34342914D02*
X29878095Y-34390533D01*
X18557333Y-76781019D02*
X18224000Y-76304828D01*
X17985905Y-76781019D02*
X17985905Y-75781019D01*
X17985905Y-75781019D02*
X18366857Y-75781019D01*
X18366857Y-75781019D02*
X18462095Y-75828638D01*
X18462095Y-75828638D02*
X18509714Y-75876257D01*
X18509714Y-75876257D02*
X18557333Y-75971495D01*
X18557333Y-75971495D02*
X18557333Y-76114352D01*
X18557333Y-76114352D02*
X18509714Y-76209590D01*
X18509714Y-76209590D02*
X18462095Y-76257209D01*
X18462095Y-76257209D02*
X18366857Y-76304828D01*
X18366857Y-76304828D02*
X17985905Y-76304828D01*
X19509714Y-76781019D02*
X18938286Y-76781019D01*
X19224000Y-76781019D02*
X19224000Y-75781019D01*
X19224000Y-75781019D02*
X19128762Y-75923876D01*
X19128762Y-75923876D02*
X19033524Y-76019114D01*
X19033524Y-76019114D02*
X18938286Y-76066733D01*
X17734819Y-106003333D02*
X18449104Y-106003333D01*
X18449104Y-106003333D02*
X18591961Y-106050952D01*
X18591961Y-106050952D02*
X18687200Y-106146190D01*
X18687200Y-106146190D02*
X18734819Y-106289047D01*
X18734819Y-106289047D02*
X18734819Y-106384285D01*
X17734819Y-105622380D02*
X17734819Y-105003333D01*
X17734819Y-105003333D02*
X18115771Y-105336666D01*
X18115771Y-105336666D02*
X18115771Y-105193809D01*
X18115771Y-105193809D02*
X18163390Y-105098571D01*
X18163390Y-105098571D02*
X18211009Y-105050952D01*
X18211009Y-105050952D02*
X18306247Y-105003333D01*
X18306247Y-105003333D02*
X18544342Y-105003333D01*
X18544342Y-105003333D02*
X18639580Y-105050952D01*
X18639580Y-105050952D02*
X18687200Y-105098571D01*
X18687200Y-105098571D02*
X18734819Y-105193809D01*
X18734819Y-105193809D02*
X18734819Y-105479523D01*
X18734819Y-105479523D02*
X18687200Y-105574761D01*
X18687200Y-105574761D02*
X18639580Y-105622380D01*
X31264333Y-45449580D02*
X31216714Y-45497200D01*
X31216714Y-45497200D02*
X31073857Y-45544819D01*
X31073857Y-45544819D02*
X30978619Y-45544819D01*
X30978619Y-45544819D02*
X30835762Y-45497200D01*
X30835762Y-45497200D02*
X30740524Y-45401961D01*
X30740524Y-45401961D02*
X30692905Y-45306723D01*
X30692905Y-45306723D02*
X30645286Y-45116247D01*
X30645286Y-45116247D02*
X30645286Y-44973390D01*
X30645286Y-44973390D02*
X30692905Y-44782914D01*
X30692905Y-44782914D02*
X30740524Y-44687676D01*
X30740524Y-44687676D02*
X30835762Y-44592438D01*
X30835762Y-44592438D02*
X30978619Y-44544819D01*
X30978619Y-44544819D02*
X31073857Y-44544819D01*
X31073857Y-44544819D02*
X31216714Y-44592438D01*
X31216714Y-44592438D02*
X31264333Y-44640057D01*
X32121476Y-44878152D02*
X32121476Y-45544819D01*
X31883381Y-44497200D02*
X31645286Y-45211485D01*
X31645286Y-45211485D02*
X32264333Y-45211485D01*
D11*
X17893295Y-35601019D02*
X17893295Y-36410542D01*
X17893295Y-36410542D02*
X17940914Y-36505780D01*
X17940914Y-36505780D02*
X17988533Y-36553400D01*
X17988533Y-36553400D02*
X18083771Y-36601019D01*
X18083771Y-36601019D02*
X18274247Y-36601019D01*
X18274247Y-36601019D02*
X18369485Y-36553400D01*
X18369485Y-36553400D02*
X18417104Y-36505780D01*
X18417104Y-36505780D02*
X18464723Y-36410542D01*
X18464723Y-36410542D02*
X18464723Y-35601019D01*
X18893295Y-35696257D02*
X18940914Y-35648638D01*
X18940914Y-35648638D02*
X19036152Y-35601019D01*
X19036152Y-35601019D02*
X19274247Y-35601019D01*
X19274247Y-35601019D02*
X19369485Y-35648638D01*
X19369485Y-35648638D02*
X19417104Y-35696257D01*
X19417104Y-35696257D02*
X19464723Y-35791495D01*
X19464723Y-35791495D02*
X19464723Y-35886733D01*
X19464723Y-35886733D02*
X19417104Y-36029590D01*
X19417104Y-36029590D02*
X18845676Y-36601019D01*
X18845676Y-36601019D02*
X19464723Y-36601019D01*
D10*
X26425333Y-45699580D02*
X26377714Y-45747200D01*
X26377714Y-45747200D02*
X26234857Y-45794819D01*
X26234857Y-45794819D02*
X26139619Y-45794819D01*
X26139619Y-45794819D02*
X25996762Y-45747200D01*
X25996762Y-45747200D02*
X25901524Y-45651961D01*
X25901524Y-45651961D02*
X25853905Y-45556723D01*
X25853905Y-45556723D02*
X25806286Y-45366247D01*
X25806286Y-45366247D02*
X25806286Y-45223390D01*
X25806286Y-45223390D02*
X25853905Y-45032914D01*
X25853905Y-45032914D02*
X25901524Y-44937676D01*
X25901524Y-44937676D02*
X25996762Y-44842438D01*
X25996762Y-44842438D02*
X26139619Y-44794819D01*
X26139619Y-44794819D02*
X26234857Y-44794819D01*
X26234857Y-44794819D02*
X26377714Y-44842438D01*
X26377714Y-44842438D02*
X26425333Y-44890057D01*
X27377714Y-45794819D02*
X26806286Y-45794819D01*
X27092000Y-45794819D02*
X27092000Y-44794819D01*
X27092000Y-44794819D02*
X26996762Y-44937676D01*
X26996762Y-44937676D02*
X26901524Y-45032914D01*
X26901524Y-45032914D02*
X26806286Y-45080533D01*
X15012844Y-27854487D02*
X15469987Y-27854487D01*
X15469987Y-27854487D02*
X15561415Y-27884964D01*
X15561415Y-27884964D02*
X15622368Y-27945916D01*
X15622368Y-27945916D02*
X15652844Y-28037345D01*
X15652844Y-28037345D02*
X15652844Y-28098297D01*
X15012844Y-27244964D02*
X15012844Y-27549726D01*
X15012844Y-27549726D02*
X15317606Y-27580202D01*
X15317606Y-27580202D02*
X15287129Y-27549726D01*
X15287129Y-27549726D02*
X15256653Y-27488773D01*
X15256653Y-27488773D02*
X15256653Y-27336392D01*
X15256653Y-27336392D02*
X15287129Y-27275440D01*
X15287129Y-27275440D02*
X15317606Y-27244964D01*
X15317606Y-27244964D02*
X15378558Y-27214487D01*
X15378558Y-27214487D02*
X15530939Y-27214487D01*
X15530939Y-27214487D02*
X15591891Y-27244964D01*
X15591891Y-27244964D02*
X15622368Y-27275440D01*
X15622368Y-27275440D02*
X15652844Y-27336392D01*
X15652844Y-27336392D02*
X15652844Y-27488773D01*
X15652844Y-27488773D02*
X15622368Y-27549726D01*
X15622368Y-27549726D02*
X15591891Y-27580202D01*
X31264333Y-51287580D02*
X31216714Y-51335200D01*
X31216714Y-51335200D02*
X31073857Y-51382819D01*
X31073857Y-51382819D02*
X30978619Y-51382819D01*
X30978619Y-51382819D02*
X30835762Y-51335200D01*
X30835762Y-51335200D02*
X30740524Y-51239961D01*
X30740524Y-51239961D02*
X30692905Y-51144723D01*
X30692905Y-51144723D02*
X30645286Y-50954247D01*
X30645286Y-50954247D02*
X30645286Y-50811390D01*
X30645286Y-50811390D02*
X30692905Y-50620914D01*
X30692905Y-50620914D02*
X30740524Y-50525676D01*
X30740524Y-50525676D02*
X30835762Y-50430438D01*
X30835762Y-50430438D02*
X30978619Y-50382819D01*
X30978619Y-50382819D02*
X31073857Y-50382819D01*
X31073857Y-50382819D02*
X31216714Y-50430438D01*
X31216714Y-50430438D02*
X31264333Y-50478057D01*
X31597667Y-50382819D02*
X32216714Y-50382819D01*
X32216714Y-50382819D02*
X31883381Y-50763771D01*
X31883381Y-50763771D02*
X32026238Y-50763771D01*
X32026238Y-50763771D02*
X32121476Y-50811390D01*
X32121476Y-50811390D02*
X32169095Y-50859009D01*
X32169095Y-50859009D02*
X32216714Y-50954247D01*
X32216714Y-50954247D02*
X32216714Y-51192342D01*
X32216714Y-51192342D02*
X32169095Y-51287580D01*
X32169095Y-51287580D02*
X32121476Y-51335200D01*
X32121476Y-51335200D02*
X32026238Y-51382819D01*
X32026238Y-51382819D02*
X31740524Y-51382819D01*
X31740524Y-51382819D02*
X31645286Y-51335200D01*
X31645286Y-51335200D02*
X31597667Y-51287580D01*
X20886333Y-45794819D02*
X20553000Y-45318628D01*
X20314905Y-45794819D02*
X20314905Y-44794819D01*
X20314905Y-44794819D02*
X20695857Y-44794819D01*
X20695857Y-44794819D02*
X20791095Y-44842438D01*
X20791095Y-44842438D02*
X20838714Y-44890057D01*
X20838714Y-44890057D02*
X20886333Y-44985295D01*
X20886333Y-44985295D02*
X20886333Y-45128152D01*
X20886333Y-45128152D02*
X20838714Y-45223390D01*
X20838714Y-45223390D02*
X20791095Y-45271009D01*
X20791095Y-45271009D02*
X20695857Y-45318628D01*
X20695857Y-45318628D02*
X20314905Y-45318628D01*
X21791095Y-44794819D02*
X21314905Y-44794819D01*
X21314905Y-44794819D02*
X21267286Y-45271009D01*
X21267286Y-45271009D02*
X21314905Y-45223390D01*
X21314905Y-45223390D02*
X21410143Y-45175771D01*
X21410143Y-45175771D02*
X21648238Y-45175771D01*
X21648238Y-45175771D02*
X21743476Y-45223390D01*
X21743476Y-45223390D02*
X21791095Y-45271009D01*
X21791095Y-45271009D02*
X21838714Y-45366247D01*
X21838714Y-45366247D02*
X21838714Y-45604342D01*
X21838714Y-45604342D02*
X21791095Y-45699580D01*
X21791095Y-45699580D02*
X21743476Y-45747200D01*
X21743476Y-45747200D02*
X21648238Y-45794819D01*
X21648238Y-45794819D02*
X21410143Y-45794819D01*
X21410143Y-45794819D02*
X21314905Y-45747200D01*
X21314905Y-45747200D02*
X21267286Y-45699580D01*
X16314333Y-51382819D02*
X15981000Y-50906628D01*
X15742905Y-51382819D02*
X15742905Y-50382819D01*
X15742905Y-50382819D02*
X16123857Y-50382819D01*
X16123857Y-50382819D02*
X16219095Y-50430438D01*
X16219095Y-50430438D02*
X16266714Y-50478057D01*
X16266714Y-50478057D02*
X16314333Y-50573295D01*
X16314333Y-50573295D02*
X16314333Y-50716152D01*
X16314333Y-50716152D02*
X16266714Y-50811390D01*
X16266714Y-50811390D02*
X16219095Y-50859009D01*
X16219095Y-50859009D02*
X16123857Y-50906628D01*
X16123857Y-50906628D02*
X15742905Y-50906628D01*
X16647667Y-50382819D02*
X17266714Y-50382819D01*
X17266714Y-50382819D02*
X16933381Y-50763771D01*
X16933381Y-50763771D02*
X17076238Y-50763771D01*
X17076238Y-50763771D02*
X17171476Y-50811390D01*
X17171476Y-50811390D02*
X17219095Y-50859009D01*
X17219095Y-50859009D02*
X17266714Y-50954247D01*
X17266714Y-50954247D02*
X17266714Y-51192342D01*
X17266714Y-51192342D02*
X17219095Y-51287580D01*
X17219095Y-51287580D02*
X17171476Y-51335200D01*
X17171476Y-51335200D02*
X17076238Y-51382819D01*
X17076238Y-51382819D02*
X16790524Y-51382819D01*
X16790524Y-51382819D02*
X16695286Y-51335200D01*
X16695286Y-51335200D02*
X16647667Y-51287580D01*
X19875047Y-58785209D02*
X20017904Y-58832828D01*
X20017904Y-58832828D02*
X20065523Y-58880447D01*
X20065523Y-58880447D02*
X20113142Y-58975685D01*
X20113142Y-58975685D02*
X20113142Y-59118542D01*
X20113142Y-59118542D02*
X20065523Y-59213780D01*
X20065523Y-59213780D02*
X20017904Y-59261400D01*
X20017904Y-59261400D02*
X19922666Y-59309019D01*
X19922666Y-59309019D02*
X19541714Y-59309019D01*
X19541714Y-59309019D02*
X19541714Y-58309019D01*
X19541714Y-58309019D02*
X19875047Y-58309019D01*
X19875047Y-58309019D02*
X19970285Y-58356638D01*
X19970285Y-58356638D02*
X20017904Y-58404257D01*
X20017904Y-58404257D02*
X20065523Y-58499495D01*
X20065523Y-58499495D02*
X20065523Y-58594733D01*
X20065523Y-58594733D02*
X20017904Y-58689971D01*
X20017904Y-58689971D02*
X19970285Y-58737590D01*
X19970285Y-58737590D02*
X19875047Y-58785209D01*
X19875047Y-58785209D02*
X19541714Y-58785209D01*
X20446476Y-58309019D02*
X21113142Y-58309019D01*
X21113142Y-58309019D02*
X20446476Y-59309019D01*
X20446476Y-59309019D02*
X21113142Y-59309019D01*
X22017904Y-59309019D02*
X21446476Y-59309019D01*
X21732190Y-59309019D02*
X21732190Y-58309019D01*
X21732190Y-58309019D02*
X21636952Y-58451876D01*
X21636952Y-58451876D02*
X21541714Y-58547114D01*
X21541714Y-58547114D02*
X21446476Y-58594733D01*
X16565048Y-63588066D02*
X17326953Y-63588066D01*
X16946000Y-63969019D02*
X16946000Y-63207114D01*
X28209333Y-76781019D02*
X27876000Y-76304828D01*
X27637905Y-76781019D02*
X27637905Y-75781019D01*
X27637905Y-75781019D02*
X28018857Y-75781019D01*
X28018857Y-75781019D02*
X28114095Y-75828638D01*
X28114095Y-75828638D02*
X28161714Y-75876257D01*
X28161714Y-75876257D02*
X28209333Y-75971495D01*
X28209333Y-75971495D02*
X28209333Y-76114352D01*
X28209333Y-76114352D02*
X28161714Y-76209590D01*
X28161714Y-76209590D02*
X28114095Y-76257209D01*
X28114095Y-76257209D02*
X28018857Y-76304828D01*
X28018857Y-76304828D02*
X27637905Y-76304828D01*
X28590286Y-75876257D02*
X28637905Y-75828638D01*
X28637905Y-75828638D02*
X28733143Y-75781019D01*
X28733143Y-75781019D02*
X28971238Y-75781019D01*
X28971238Y-75781019D02*
X29066476Y-75828638D01*
X29066476Y-75828638D02*
X29114095Y-75876257D01*
X29114095Y-75876257D02*
X29161714Y-75971495D01*
X29161714Y-75971495D02*
X29161714Y-76066733D01*
X29161714Y-76066733D02*
X29114095Y-76209590D01*
X29114095Y-76209590D02*
X28542667Y-76781019D01*
X28542667Y-76781019D02*
X29161714Y-76781019D01*
X30014819Y-99907333D02*
X30729104Y-99907333D01*
X30729104Y-99907333D02*
X30871961Y-99954952D01*
X30871961Y-99954952D02*
X30967200Y-100050190D01*
X30967200Y-100050190D02*
X31014819Y-100193047D01*
X31014819Y-100193047D02*
X31014819Y-100288285D01*
X30014819Y-99002571D02*
X30014819Y-99193047D01*
X30014819Y-99193047D02*
X30062438Y-99288285D01*
X30062438Y-99288285D02*
X30110057Y-99335904D01*
X30110057Y-99335904D02*
X30252914Y-99431142D01*
X30252914Y-99431142D02*
X30443390Y-99478761D01*
X30443390Y-99478761D02*
X30824342Y-99478761D01*
X30824342Y-99478761D02*
X30919580Y-99431142D01*
X30919580Y-99431142D02*
X30967200Y-99383523D01*
X30967200Y-99383523D02*
X31014819Y-99288285D01*
X31014819Y-99288285D02*
X31014819Y-99097809D01*
X31014819Y-99097809D02*
X30967200Y-99002571D01*
X30967200Y-99002571D02*
X30919580Y-98954952D01*
X30919580Y-98954952D02*
X30824342Y-98907333D01*
X30824342Y-98907333D02*
X30586247Y-98907333D01*
X30586247Y-98907333D02*
X30491009Y-98954952D01*
X30491009Y-98954952D02*
X30443390Y-99002571D01*
X30443390Y-99002571D02*
X30395771Y-99097809D01*
X30395771Y-99097809D02*
X30395771Y-99288285D01*
X30395771Y-99288285D02*
X30443390Y-99383523D01*
X30443390Y-99383523D02*
X30491009Y-99431142D01*
X30491009Y-99431142D02*
X30586247Y-99478761D01*
X26425333Y-51287580D02*
X26377714Y-51335200D01*
X26377714Y-51335200D02*
X26234857Y-51382819D01*
X26234857Y-51382819D02*
X26139619Y-51382819D01*
X26139619Y-51382819D02*
X25996762Y-51335200D01*
X25996762Y-51335200D02*
X25901524Y-51239961D01*
X25901524Y-51239961D02*
X25853905Y-51144723D01*
X25853905Y-51144723D02*
X25806286Y-50954247D01*
X25806286Y-50954247D02*
X25806286Y-50811390D01*
X25806286Y-50811390D02*
X25853905Y-50620914D01*
X25853905Y-50620914D02*
X25901524Y-50525676D01*
X25901524Y-50525676D02*
X25996762Y-50430438D01*
X25996762Y-50430438D02*
X26139619Y-50382819D01*
X26139619Y-50382819D02*
X26234857Y-50382819D01*
X26234857Y-50382819D02*
X26377714Y-50430438D01*
X26377714Y-50430438D02*
X26425333Y-50478057D01*
X26806286Y-50478057D02*
X26853905Y-50430438D01*
X26853905Y-50430438D02*
X26949143Y-50382819D01*
X26949143Y-50382819D02*
X27187238Y-50382819D01*
X27187238Y-50382819D02*
X27282476Y-50430438D01*
X27282476Y-50430438D02*
X27330095Y-50478057D01*
X27330095Y-50478057D02*
X27377714Y-50573295D01*
X27377714Y-50573295D02*
X27377714Y-50668533D01*
X27377714Y-50668533D02*
X27330095Y-50811390D01*
X27330095Y-50811390D02*
X26758667Y-51382819D01*
X26758667Y-51382819D02*
X27377714Y-51382819D01*
X24295714Y-110209104D02*
X24771904Y-110209104D01*
X24200476Y-110494819D02*
X24533809Y-109494819D01*
X24533809Y-109494819D02*
X24867142Y-110494819D01*
X25724285Y-110494819D02*
X25152857Y-110494819D01*
X25438571Y-110494819D02*
X25438571Y-109494819D01*
X25438571Y-109494819D02*
X25343333Y-109637676D01*
X25343333Y-109637676D02*
X25248095Y-109732914D01*
X25248095Y-109732914D02*
X25152857Y-109780533D01*
X23050095Y-147805019D02*
X23050095Y-148614542D01*
X23050095Y-148614542D02*
X23097714Y-148709780D01*
X23097714Y-148709780D02*
X23145333Y-148757400D01*
X23145333Y-148757400D02*
X23240571Y-148805019D01*
X23240571Y-148805019D02*
X23431047Y-148805019D01*
X23431047Y-148805019D02*
X23526285Y-148757400D01*
X23526285Y-148757400D02*
X23573904Y-148709780D01*
X23573904Y-148709780D02*
X23621523Y-148614542D01*
X23621523Y-148614542D02*
X23621523Y-147805019D01*
X24050095Y-148757400D02*
X24192952Y-148805019D01*
X24192952Y-148805019D02*
X24431047Y-148805019D01*
X24431047Y-148805019D02*
X24526285Y-148757400D01*
X24526285Y-148757400D02*
X24573904Y-148709780D01*
X24573904Y-148709780D02*
X24621523Y-148614542D01*
X24621523Y-148614542D02*
X24621523Y-148519304D01*
X24621523Y-148519304D02*
X24573904Y-148424066D01*
X24573904Y-148424066D02*
X24526285Y-148376447D01*
X24526285Y-148376447D02*
X24431047Y-148328828D01*
X24431047Y-148328828D02*
X24240571Y-148281209D01*
X24240571Y-148281209D02*
X24145333Y-148233590D01*
X24145333Y-148233590D02*
X24097714Y-148185971D01*
X24097714Y-148185971D02*
X24050095Y-148090733D01*
X24050095Y-148090733D02*
X24050095Y-147995495D01*
X24050095Y-147995495D02*
X24097714Y-147900257D01*
X24097714Y-147900257D02*
X24145333Y-147852638D01*
X24145333Y-147852638D02*
X24240571Y-147805019D01*
X24240571Y-147805019D02*
X24478666Y-147805019D01*
X24478666Y-147805019D02*
X24621523Y-147852638D01*
X25383428Y-148281209D02*
X25526285Y-148328828D01*
X25526285Y-148328828D02*
X25573904Y-148376447D01*
X25573904Y-148376447D02*
X25621523Y-148471685D01*
X25621523Y-148471685D02*
X25621523Y-148614542D01*
X25621523Y-148614542D02*
X25573904Y-148709780D01*
X25573904Y-148709780D02*
X25526285Y-148757400D01*
X25526285Y-148757400D02*
X25431047Y-148805019D01*
X25431047Y-148805019D02*
X25050095Y-148805019D01*
X25050095Y-148805019D02*
X25050095Y-147805019D01*
X25050095Y-147805019D02*
X25383428Y-147805019D01*
X25383428Y-147805019D02*
X25478666Y-147852638D01*
X25478666Y-147852638D02*
X25526285Y-147900257D01*
X25526285Y-147900257D02*
X25573904Y-147995495D01*
X25573904Y-147995495D02*
X25573904Y-148090733D01*
X25573904Y-148090733D02*
X25526285Y-148185971D01*
X25526285Y-148185971D02*
X25478666Y-148233590D01*
X25478666Y-148233590D02*
X25383428Y-148281209D01*
X25383428Y-148281209D02*
X25050095Y-148281209D01*
X31090666Y-56067019D02*
X31090666Y-56781304D01*
X31090666Y-56781304D02*
X31043047Y-56924161D01*
X31043047Y-56924161D02*
X30947809Y-57019400D01*
X30947809Y-57019400D02*
X30804952Y-57067019D01*
X30804952Y-57067019D02*
X30709714Y-57067019D01*
X31519238Y-56162257D02*
X31566857Y-56114638D01*
X31566857Y-56114638D02*
X31662095Y-56067019D01*
X31662095Y-56067019D02*
X31900190Y-56067019D01*
X31900190Y-56067019D02*
X31995428Y-56114638D01*
X31995428Y-56114638D02*
X32043047Y-56162257D01*
X32043047Y-56162257D02*
X32090666Y-56257495D01*
X32090666Y-56257495D02*
X32090666Y-56352733D01*
X32090666Y-56352733D02*
X32043047Y-56495590D01*
X32043047Y-56495590D02*
X31471619Y-57067019D01*
X31471619Y-57067019D02*
X32090666Y-57067019D01*
X20886333Y-51382819D02*
X20553000Y-50906628D01*
X20314905Y-51382819D02*
X20314905Y-50382819D01*
X20314905Y-50382819D02*
X20695857Y-50382819D01*
X20695857Y-50382819D02*
X20791095Y-50430438D01*
X20791095Y-50430438D02*
X20838714Y-50478057D01*
X20838714Y-50478057D02*
X20886333Y-50573295D01*
X20886333Y-50573295D02*
X20886333Y-50716152D01*
X20886333Y-50716152D02*
X20838714Y-50811390D01*
X20838714Y-50811390D02*
X20791095Y-50859009D01*
X20791095Y-50859009D02*
X20695857Y-50906628D01*
X20695857Y-50906628D02*
X20314905Y-50906628D01*
X21743476Y-50382819D02*
X21553000Y-50382819D01*
X21553000Y-50382819D02*
X21457762Y-50430438D01*
X21457762Y-50430438D02*
X21410143Y-50478057D01*
X21410143Y-50478057D02*
X21314905Y-50620914D01*
X21314905Y-50620914D02*
X21267286Y-50811390D01*
X21267286Y-50811390D02*
X21267286Y-51192342D01*
X21267286Y-51192342D02*
X21314905Y-51287580D01*
X21314905Y-51287580D02*
X21362524Y-51335200D01*
X21362524Y-51335200D02*
X21457762Y-51382819D01*
X21457762Y-51382819D02*
X21648238Y-51382819D01*
X21648238Y-51382819D02*
X21743476Y-51335200D01*
X21743476Y-51335200D02*
X21791095Y-51287580D01*
X21791095Y-51287580D02*
X21838714Y-51192342D01*
X21838714Y-51192342D02*
X21838714Y-50954247D01*
X21838714Y-50954247D02*
X21791095Y-50859009D01*
X21791095Y-50859009D02*
X21743476Y-50811390D01*
X21743476Y-50811390D02*
X21648238Y-50763771D01*
X21648238Y-50763771D02*
X21457762Y-50763771D01*
X21457762Y-50763771D02*
X21362524Y-50811390D01*
X21362524Y-50811390D02*
X21314905Y-50859009D01*
X21314905Y-50859009D02*
X21267286Y-50954247D01*
X34732819Y-85691533D02*
X35447104Y-85691533D01*
X35447104Y-85691533D02*
X35589961Y-85739152D01*
X35589961Y-85739152D02*
X35685200Y-85834390D01*
X35685200Y-85834390D02*
X35732819Y-85977247D01*
X35732819Y-85977247D02*
X35732819Y-86072485D01*
X35066152Y-84786771D02*
X35732819Y-84786771D01*
X34685200Y-85024866D02*
X35399485Y-85262961D01*
X35399485Y-85262961D02*
X35399485Y-84643914D01*
D12*
X21707000Y-142060200D02*
X21707000Y-140730200D01*
X23037000Y-142060200D02*
X21707000Y-142060200D01*
X24307000Y-142060200D02*
X26907000Y-142060200D01*
X24307000Y-142060200D02*
X24307000Y-139400200D01*
X26907000Y-142060200D02*
X26907000Y-139400200D01*
X24307000Y-139400200D02*
X26907000Y-139400200D01*
X16243742Y-46247500D02*
X16718258Y-46247500D01*
X16243742Y-47292500D02*
X16718258Y-47292500D01*
X25540000Y-35740000D02*
X31550000Y-35740000D01*
X27790000Y-42560000D02*
X31550000Y-42560000D01*
X31550000Y-35740000D02*
X31550000Y-37000000D01*
X31550000Y-42560000D02*
X31550000Y-41300000D01*
X16804000Y-77326200D02*
X20644000Y-77326200D01*
X16804000Y-79166200D02*
X20644000Y-79166200D01*
X19280000Y-107000000D02*
X19280000Y-105670000D01*
X20610000Y-107000000D02*
X19280000Y-107000000D01*
X21880000Y-107000000D02*
X29560000Y-107000000D01*
X21880000Y-107000000D02*
X21880000Y-104340000D01*
X29560000Y-107000000D02*
X29560000Y-104340000D01*
X21880000Y-104340000D02*
X29560000Y-104340000D01*
X31169748Y-46035000D02*
X31692252Y-46035000D01*
X31169748Y-47505000D02*
X31692252Y-47505000D01*
D13*
X14792800Y-37362800D02*
G75*
G03*
X14592800Y-37362800I-100000J0D01*
G01*
X14592800Y-37362800D02*
G75*
G03*
X14792800Y-37362800I100000J0D01*
G01*
D12*
X26451420Y-46260000D02*
X26732580Y-46260000D01*
X26451420Y-47280000D02*
X26732580Y-47280000D01*
D10*
X16316000Y-17518155D02*
X16316000Y-20018155D01*
X16316000Y-20018155D02*
X16316000Y-20496300D01*
X16316000Y-23246300D02*
X16316000Y-30496300D01*
X17716000Y-20018155D02*
X16316000Y-20018155D01*
X17816000Y-31996300D02*
X20566000Y-31996300D01*
X19116000Y-17518155D02*
X16316000Y-17518155D01*
X24550968Y-17518155D02*
X19050968Y-17518155D01*
X24550968Y-18718155D02*
X24550968Y-17518155D01*
X29800968Y-20018155D02*
X31066000Y-20018155D01*
X30050968Y-17518155D02*
X24550968Y-17518155D01*
X31066000Y-17518155D02*
X30050968Y-17518155D01*
X31066000Y-17518155D02*
X31066000Y-20018155D01*
X31066000Y-20007227D02*
X31066000Y-20485372D01*
X31066000Y-23246300D02*
X31066000Y-30496300D01*
D12*
X31290420Y-51848000D02*
X31571580Y-51848000D01*
X31290420Y-52868000D02*
X31571580Y-52868000D01*
X20815742Y-46247500D02*
X21290258Y-46247500D01*
X20815742Y-47292500D02*
X21290258Y-47292500D01*
X16243742Y-51835500D02*
X16718258Y-51835500D01*
X16243742Y-52880500D02*
X16718258Y-52880500D01*
X26856000Y-66054200D02*
G75*
G03*
X14656000Y-66054200I-6100000J0D01*
G01*
X14656000Y-66054200D02*
G75*
G03*
X26856000Y-66054200I6100000J0D01*
G01*
X26456000Y-77326200D02*
X30296000Y-77326200D01*
X26456000Y-79166200D02*
X30296000Y-79166200D01*
X29560000Y-98244000D02*
X29560000Y-99574000D01*
X28230000Y-98244000D02*
X29560000Y-98244000D01*
X26960000Y-98244000D02*
X19280000Y-98244000D01*
X26960000Y-98244000D02*
X26960000Y-100904000D01*
X19280000Y-98244000D02*
X19280000Y-100904000D01*
X26960000Y-100904000D02*
X19280000Y-100904000D01*
X26451420Y-51848000D02*
X26732580Y-51848000D01*
X26451420Y-52868000D02*
X26732580Y-52868000D01*
X15292000Y-108850200D02*
X15292000Y-111520200D01*
X15292000Y-114060200D02*
X15292000Y-152290200D01*
X15292000Y-152290200D02*
X20372000Y-152290200D01*
X17962000Y-111520200D02*
X15292000Y-111520200D01*
X17962000Y-114060200D02*
X15292000Y-114060200D01*
X17962000Y-114060200D02*
X17962000Y-111520200D01*
X17962000Y-114060200D02*
X17962000Y-149620200D01*
X17962000Y-149620200D02*
X15292000Y-149620200D01*
X20372000Y-144410200D02*
X28252000Y-144410200D01*
X20372000Y-154830200D02*
X20372000Y-144410200D01*
X28252000Y-144410200D02*
X28252000Y-154830200D01*
X28252000Y-154830200D02*
X20372000Y-154830200D01*
X30662000Y-111520200D02*
X30662000Y-149620200D01*
X30662000Y-111520200D02*
X33332000Y-111520200D01*
X30662000Y-149620200D02*
X33332000Y-149620200D01*
X33332000Y-108850200D02*
X15292000Y-108850200D01*
X33332000Y-152290200D02*
X28252000Y-152290200D01*
X33332000Y-152290200D02*
X33332000Y-108850200D01*
X32754000Y-60212200D02*
X32754000Y-75512200D01*
X30094000Y-75512200D02*
X32754000Y-75512200D01*
X30094000Y-60212200D02*
X32754000Y-60212200D01*
X30094000Y-60212200D02*
X30094000Y-75512200D01*
X30094000Y-58942200D02*
X30094000Y-57612200D01*
X30094000Y-57612200D02*
X31424000Y-57612200D01*
X20815742Y-51835500D02*
X21290258Y-51835500D01*
X20815742Y-52880500D02*
X21290258Y-52880500D01*
X34278000Y-84028200D02*
X34278000Y-85358200D01*
X32948000Y-84028200D02*
X34278000Y-84028200D01*
X31678000Y-84028200D02*
X13838000Y-84028200D01*
X31678000Y-84028200D02*
X31678000Y-86688200D01*
X13838000Y-84028200D02*
X13838000Y-86688200D01*
X31678000Y-86688200D02*
X13838000Y-86688200D01*
%LPC*%
D14*
X33500000Y-154000000D03*
D15*
X23037000Y-140730200D03*
D16*
X25577000Y-140730200D03*
D17*
X15656000Y-46770000D03*
X17306000Y-46770000D03*
D18*
X26490000Y-36850000D03*
X26490000Y-39150000D03*
D19*
X32790000Y-39150000D03*
D18*
X26490000Y-41450000D03*
D20*
X16184000Y-78246200D03*
D21*
X21264000Y-78246200D03*
D15*
X20610000Y-105670000D03*
D16*
X23150000Y-105670000D03*
X25690000Y-105670000D03*
X28230000Y-105670000D03*
D22*
X30481000Y-46770000D03*
X32381000Y-46770000D03*
D23*
X15912000Y-37058000D03*
X15912000Y-37708000D03*
X15912000Y-38358000D03*
X15912000Y-39008000D03*
X15912000Y-39658000D03*
X15912000Y-40308000D03*
X15912000Y-40958000D03*
X21512000Y-40958000D03*
X21512000Y-40308000D03*
X21512000Y-39658000D03*
X21512000Y-39008000D03*
X21512000Y-38358000D03*
X21512000Y-37708000D03*
X21512000Y-37058000D03*
D14*
X33500000Y-15000000D03*
D24*
X25817000Y-46770000D03*
X27367000Y-46770000D03*
D25*
X20550968Y-21518155D03*
X28550968Y-21518155D03*
D26*
X21350968Y-32018155D03*
X22450968Y-32018155D03*
X23550968Y-32018155D03*
X24650968Y-32018155D03*
X25750968Y-32018155D03*
X26850968Y-32018155D03*
X27950968Y-32018155D03*
X29050968Y-32018155D03*
X30150968Y-32018155D03*
D27*
X15850968Y-21918155D03*
D28*
X16750968Y-31518155D03*
D27*
X31350968Y-21918155D03*
D29*
X31350968Y-31518155D03*
D24*
X30656000Y-52358000D03*
X32206000Y-52358000D03*
D17*
X20228000Y-46770000D03*
X21878000Y-46770000D03*
X15656000Y-52358000D03*
X17306000Y-52358000D03*
D30*
X16956000Y-66054200D03*
D31*
X24556000Y-66054200D03*
D14*
X15000000Y-15000000D03*
D20*
X25836000Y-78246200D03*
D21*
X30916000Y-78246200D03*
D15*
X28230000Y-99574000D03*
D16*
X25690000Y-99574000D03*
X23150000Y-99574000D03*
X20610000Y-99574000D03*
D24*
X25817000Y-52358000D03*
X27367000Y-52358000D03*
D14*
X15000000Y-154000000D03*
D32*
X16692000Y-112790200D03*
D33*
X16692000Y-115330200D03*
X16692000Y-117870200D03*
X16692000Y-120410200D03*
X16692000Y-122950200D03*
X16692000Y-125490200D03*
X16692000Y-128030200D03*
X16692000Y-130570200D03*
X16692000Y-133110200D03*
X16692000Y-135650200D03*
X16692000Y-138190200D03*
X16692000Y-140730200D03*
X16692000Y-143270200D03*
X16692000Y-145810200D03*
X16692000Y-148350200D03*
X31932000Y-148350200D03*
X31932000Y-145810200D03*
X31932000Y-143270200D03*
X31932000Y-140730200D03*
X31932000Y-138190200D03*
X31932000Y-135650200D03*
X31932000Y-133110200D03*
X31932000Y-130570200D03*
X31932000Y-128030200D03*
X31932000Y-125490200D03*
X31932000Y-122950200D03*
X31932000Y-120410200D03*
X31932000Y-117870200D03*
X31932000Y-115330200D03*
X31932000Y-112790200D03*
D16*
X31424000Y-74182200D03*
X31424000Y-71642200D03*
X31424000Y-69102200D03*
X31424000Y-66562200D03*
X31424000Y-64022200D03*
X31424000Y-61482200D03*
D15*
X31424000Y-58942200D03*
D17*
X20228000Y-52358000D03*
X21878000Y-52358000D03*
D15*
X32948000Y-85358200D03*
D16*
X30408000Y-85358200D03*
X27868000Y-85358200D03*
X25328000Y-85358200D03*
X22788000Y-85358200D03*
X20248000Y-85358200D03*
X17708000Y-85358200D03*
X15168000Y-85358200D03*
%LPD*%
M02*
