G04 #@! TF.GenerationSoftware,KiCad,Pcbnew,7.0.10-7.0.10~ubuntu22.04.1*
G04 #@! TF.CreationDate,2024-01-30T11:00:35+01:00*
G04 #@! TF.ProjectId,rocketry_circuit,726f636b-6574-4727-995f-636972637569,rev?*
G04 #@! TF.SameCoordinates,Original*
G04 #@! TF.FileFunction,Paste,Top*
G04 #@! TF.FilePolarity,Positive*
%FSLAX46Y46*%
G04 Gerber Fmt 4.6, Leading zero omitted, Abs format (unit mm)*
G04 Created by KiCad (PCBNEW 7.0.10-7.0.10~ubuntu22.04.1) date 2024-01-30 11:00:35*
%MOMM*%
%LPD*%
G01*
G04 APERTURE LIST*
G04 Aperture macros list*
%AMRoundRect*
0 Rectangle with rounded corners*
0 $1 Rounding radius*
0 $2 $3 $4 $5 $6 $7 $8 $9 X,Y pos of 4 corners*
0 Add a 4 corners polygon primitive as box body*
4,1,4,$2,$3,$4,$5,$6,$7,$8,$9,$2,$3,0*
0 Add four circle primitives for the rounded corners*
1,1,$1+$1,$2,$3*
1,1,$1+$1,$4,$5*
1,1,$1+$1,$6,$7*
1,1,$1+$1,$8,$9*
0 Add four rect primitives between the rounded corners*
20,1,$1+$1,$2,$3,$4,$5,0*
20,1,$1+$1,$4,$5,$6,$7,0*
20,1,$1+$1,$6,$7,$8,$9,0*
20,1,$1+$1,$8,$9,$2,$3,0*%
G04 Aperture macros list end*
%ADD10RoundRect,0.200000X-0.200000X-0.275000X0.200000X-0.275000X0.200000X0.275000X-0.200000X0.275000X0*%
%ADD11R,2.000000X1.500000*%
%ADD12R,2.000000X3.800000*%
%ADD13RoundRect,0.250000X-0.250000X-0.475000X0.250000X-0.475000X0.250000X0.475000X-0.250000X0.475000X0*%
%ADD14RoundRect,0.075000X-0.700000X-0.075000X0.700000X-0.075000X0.700000X0.075000X-0.700000X0.075000X0*%
%ADD15RoundRect,0.225000X-0.225000X-0.250000X0.225000X-0.250000X0.225000X0.250000X-0.225000X0.250000X0*%
%ADD16R,0.700000X1.600000*%
%ADD17R,1.200000X2.200000*%
%ADD18R,1.600000X1.400000*%
%ADD19R,1.200000X1.400000*%
G04 APERTURE END LIST*
D10*
X15656000Y-46770000D03*
X17306000Y-46770000D03*
D11*
X26490000Y-36850000D03*
X26490000Y-39150000D03*
D12*
X32790000Y-39150000D03*
D11*
X26490000Y-41450000D03*
D13*
X30481000Y-46770000D03*
X32381000Y-46770000D03*
D14*
X15912000Y-37058000D03*
X15912000Y-37708000D03*
X15912000Y-38358000D03*
X15912000Y-39008000D03*
X15912000Y-39658000D03*
X15912000Y-40308000D03*
X15912000Y-40958000D03*
X21512000Y-40958000D03*
X21512000Y-40308000D03*
X21512000Y-39658000D03*
X21512000Y-39008000D03*
X21512000Y-38358000D03*
X21512000Y-37708000D03*
X21512000Y-37058000D03*
D15*
X25817000Y-46770000D03*
X27367000Y-46770000D03*
D16*
X21350968Y-32018155D03*
X22450968Y-32018155D03*
X23550968Y-32018155D03*
X24650968Y-32018155D03*
X25750968Y-32018155D03*
X26850968Y-32018155D03*
X27950968Y-32018155D03*
X29050968Y-32018155D03*
X30150968Y-32018155D03*
D17*
X15850968Y-21918155D03*
D18*
X16750968Y-31518155D03*
D17*
X31350968Y-21918155D03*
D19*
X31350968Y-31518155D03*
D15*
X30656000Y-52358000D03*
X32206000Y-52358000D03*
D10*
X20228000Y-46770000D03*
X21878000Y-46770000D03*
X15656000Y-52358000D03*
X17306000Y-52358000D03*
D15*
X25817000Y-52358000D03*
X27367000Y-52358000D03*
D10*
X20228000Y-52358000D03*
X21878000Y-52358000D03*
M02*
