%TF.GenerationSoftware,KiCad,Pcbnew,7.0.10-7.0.10~ubuntu22.04.1*%
%TF.CreationDate,2024-01-30T11:01:31+01:00*%
%TF.ProjectId,rocketry_circuit,726f636b-6574-4727-995f-636972637569,rev?*%
%TF.SameCoordinates,Original*%
%TF.FileFunction,Drillmap*%
%TF.FilePolarity,Positive*%
%FSLAX45Y45*%
G04 Gerber Fmt 4.5, Leading zero omitted, Abs format (unit mm)*
G04 Created by KiCad (PCBNEW 7.0.10-7.0.10~ubuntu22.04.1) date 2024-01-30 11:01:31*
%MOMM*%
%LPD*%
G01*
G04 APERTURE LIST*
%ADD10C,0.100000*%
%ADD11C,0.200000*%
%ADD12C,0.320000*%
G04 APERTURE END LIST*
D10*
X1200000Y-1200000D02*
X3650000Y-1200000D01*
X3650000Y-15700000D01*
X1200000Y-15700000D01*
X1200000Y-1200000D01*
D11*
D10*
X2010097Y-2106816D02*
X2100097Y-2196816D01*
X2100097Y-2106816D02*
X2010097Y-2196816D01*
X2810097Y-2106816D02*
X2900097Y-2196816D01*
X2900097Y-2106816D02*
X2810097Y-2196816D01*
D12*
X1660000Y-1500000D02*
G75*
G03*
X1340000Y-1500000I-160000J0D01*
G01*
X1340000Y-1500000D02*
G75*
G03*
X1660000Y-1500000I160000J0D01*
G01*
X1660000Y-15400000D02*
G75*
G03*
X1340000Y-15400000I-160000J0D01*
G01*
X1340000Y-15400000D02*
G75*
G03*
X1660000Y-15400000I160000J0D01*
G01*
X3510000Y-1500000D02*
G75*
G03*
X3190000Y-1500000I-160000J0D01*
G01*
X3190000Y-1500000D02*
G75*
G03*
X3510000Y-1500000I160000J0D01*
G01*
X3510000Y-15400000D02*
G75*
G03*
X3190000Y-15400000I-160000J0D01*
G01*
X3190000Y-15400000D02*
G75*
G03*
X3510000Y-15400000I160000J0D01*
G01*
D11*
X1455777Y-16016484D02*
X1455777Y-15816484D01*
X1455777Y-15816484D02*
X1503396Y-15816484D01*
X1503396Y-15816484D02*
X1531967Y-15826008D01*
X1531967Y-15826008D02*
X1551015Y-15845055D01*
X1551015Y-15845055D02*
X1560539Y-15864103D01*
X1560539Y-15864103D02*
X1570062Y-15902198D01*
X1570062Y-15902198D02*
X1570062Y-15930769D01*
X1570062Y-15930769D02*
X1560539Y-15968865D01*
X1560539Y-15968865D02*
X1551015Y-15987912D01*
X1551015Y-15987912D02*
X1531967Y-16006960D01*
X1531967Y-16006960D02*
X1503396Y-16016484D01*
X1503396Y-16016484D02*
X1455777Y-16016484D01*
X1655777Y-16016484D02*
X1655777Y-15883150D01*
X1655777Y-15921246D02*
X1665301Y-15902198D01*
X1665301Y-15902198D02*
X1674824Y-15892674D01*
X1674824Y-15892674D02*
X1693872Y-15883150D01*
X1693872Y-15883150D02*
X1712920Y-15883150D01*
X1779586Y-16016484D02*
X1779586Y-15883150D01*
X1779586Y-15816484D02*
X1770062Y-15826008D01*
X1770062Y-15826008D02*
X1779586Y-15835531D01*
X1779586Y-15835531D02*
X1789110Y-15826008D01*
X1789110Y-15826008D02*
X1779586Y-15816484D01*
X1779586Y-15816484D02*
X1779586Y-15835531D01*
X1903396Y-16016484D02*
X1884348Y-16006960D01*
X1884348Y-16006960D02*
X1874824Y-15987912D01*
X1874824Y-15987912D02*
X1874824Y-15816484D01*
X2008158Y-16016484D02*
X1989110Y-16006960D01*
X1989110Y-16006960D02*
X1979586Y-15987912D01*
X1979586Y-15987912D02*
X1979586Y-15816484D01*
X2236729Y-16016484D02*
X2236729Y-15816484D01*
X2236729Y-15816484D02*
X2303396Y-15959341D01*
X2303396Y-15959341D02*
X2370063Y-15816484D01*
X2370063Y-15816484D02*
X2370063Y-16016484D01*
X2551015Y-16016484D02*
X2551015Y-15911722D01*
X2551015Y-15911722D02*
X2541491Y-15892674D01*
X2541491Y-15892674D02*
X2522444Y-15883150D01*
X2522444Y-15883150D02*
X2484348Y-15883150D01*
X2484348Y-15883150D02*
X2465301Y-15892674D01*
X2551015Y-16006960D02*
X2531967Y-16016484D01*
X2531967Y-16016484D02*
X2484348Y-16016484D01*
X2484348Y-16016484D02*
X2465301Y-16006960D01*
X2465301Y-16006960D02*
X2455777Y-15987912D01*
X2455777Y-15987912D02*
X2455777Y-15968865D01*
X2455777Y-15968865D02*
X2465301Y-15949817D01*
X2465301Y-15949817D02*
X2484348Y-15940293D01*
X2484348Y-15940293D02*
X2531967Y-15940293D01*
X2531967Y-15940293D02*
X2551015Y-15930769D01*
X2646253Y-15883150D02*
X2646253Y-16083150D01*
X2646253Y-15892674D02*
X2665301Y-15883150D01*
X2665301Y-15883150D02*
X2703396Y-15883150D01*
X2703396Y-15883150D02*
X2722444Y-15892674D01*
X2722444Y-15892674D02*
X2731967Y-15902198D01*
X2731967Y-15902198D02*
X2741491Y-15921246D01*
X2741491Y-15921246D02*
X2741491Y-15978388D01*
X2741491Y-15978388D02*
X2731967Y-15997436D01*
X2731967Y-15997436D02*
X2722444Y-16006960D01*
X2722444Y-16006960D02*
X2703396Y-16016484D01*
X2703396Y-16016484D02*
X2665301Y-16016484D01*
X2665301Y-16016484D02*
X2646253Y-16006960D01*
X2827205Y-15997436D02*
X2836729Y-16006960D01*
X2836729Y-16006960D02*
X2827205Y-16016484D01*
X2827205Y-16016484D02*
X2817682Y-16006960D01*
X2817682Y-16006960D02*
X2827205Y-15997436D01*
X2827205Y-15997436D02*
X2827205Y-16016484D01*
X2827205Y-15892674D02*
X2836729Y-15902198D01*
X2836729Y-15902198D02*
X2827205Y-15911722D01*
X2827205Y-15911722D02*
X2817682Y-15902198D01*
X2817682Y-15902198D02*
X2827205Y-15892674D01*
X2827205Y-15892674D02*
X2827205Y-15911722D01*
D10*
X1105000Y-16300000D02*
X1195000Y-16390000D01*
X1195000Y-16300000D02*
X1105000Y-16390000D01*
D11*
X1493872Y-16236484D02*
X1512920Y-16236484D01*
X1512920Y-16236484D02*
X1531967Y-16246008D01*
X1531967Y-16246008D02*
X1541491Y-16255531D01*
X1541491Y-16255531D02*
X1551015Y-16274579D01*
X1551015Y-16274579D02*
X1560539Y-16312674D01*
X1560539Y-16312674D02*
X1560539Y-16360293D01*
X1560539Y-16360293D02*
X1551015Y-16398388D01*
X1551015Y-16398388D02*
X1541491Y-16417436D01*
X1541491Y-16417436D02*
X1531967Y-16426960D01*
X1531967Y-16426960D02*
X1512920Y-16436484D01*
X1512920Y-16436484D02*
X1493872Y-16436484D01*
X1493872Y-16436484D02*
X1474824Y-16426960D01*
X1474824Y-16426960D02*
X1465301Y-16417436D01*
X1465301Y-16417436D02*
X1455777Y-16398388D01*
X1455777Y-16398388D02*
X1446253Y-16360293D01*
X1446253Y-16360293D02*
X1446253Y-16312674D01*
X1446253Y-16312674D02*
X1455777Y-16274579D01*
X1455777Y-16274579D02*
X1465301Y-16255531D01*
X1465301Y-16255531D02*
X1474824Y-16246008D01*
X1474824Y-16246008D02*
X1493872Y-16236484D01*
X1646253Y-16417436D02*
X1655777Y-16426960D01*
X1655777Y-16426960D02*
X1646253Y-16436484D01*
X1646253Y-16436484D02*
X1636729Y-16426960D01*
X1636729Y-16426960D02*
X1646253Y-16417436D01*
X1646253Y-16417436D02*
X1646253Y-16436484D01*
X1751015Y-16436484D02*
X1789110Y-16436484D01*
X1789110Y-16436484D02*
X1808158Y-16426960D01*
X1808158Y-16426960D02*
X1817682Y-16417436D01*
X1817682Y-16417436D02*
X1836729Y-16388865D01*
X1836729Y-16388865D02*
X1846253Y-16350769D01*
X1846253Y-16350769D02*
X1846253Y-16274579D01*
X1846253Y-16274579D02*
X1836729Y-16255531D01*
X1836729Y-16255531D02*
X1827205Y-16246008D01*
X1827205Y-16246008D02*
X1808158Y-16236484D01*
X1808158Y-16236484D02*
X1770062Y-16236484D01*
X1770062Y-16236484D02*
X1751015Y-16246008D01*
X1751015Y-16246008D02*
X1741491Y-16255531D01*
X1741491Y-16255531D02*
X1731967Y-16274579D01*
X1731967Y-16274579D02*
X1731967Y-16322198D01*
X1731967Y-16322198D02*
X1741491Y-16341246D01*
X1741491Y-16341246D02*
X1751015Y-16350769D01*
X1751015Y-16350769D02*
X1770062Y-16360293D01*
X1770062Y-16360293D02*
X1808158Y-16360293D01*
X1808158Y-16360293D02*
X1827205Y-16350769D01*
X1827205Y-16350769D02*
X1836729Y-16341246D01*
X1836729Y-16341246D02*
X1846253Y-16322198D01*
X1970062Y-16236484D02*
X1989110Y-16236484D01*
X1989110Y-16236484D02*
X2008158Y-16246008D01*
X2008158Y-16246008D02*
X2017682Y-16255531D01*
X2017682Y-16255531D02*
X2027205Y-16274579D01*
X2027205Y-16274579D02*
X2036729Y-16312674D01*
X2036729Y-16312674D02*
X2036729Y-16360293D01*
X2036729Y-16360293D02*
X2027205Y-16398388D01*
X2027205Y-16398388D02*
X2017682Y-16417436D01*
X2017682Y-16417436D02*
X2008158Y-16426960D01*
X2008158Y-16426960D02*
X1989110Y-16436484D01*
X1989110Y-16436484D02*
X1970062Y-16436484D01*
X1970062Y-16436484D02*
X1951015Y-16426960D01*
X1951015Y-16426960D02*
X1941491Y-16417436D01*
X1941491Y-16417436D02*
X1931967Y-16398388D01*
X1931967Y-16398388D02*
X1922443Y-16360293D01*
X1922443Y-16360293D02*
X1922443Y-16312674D01*
X1922443Y-16312674D02*
X1931967Y-16274579D01*
X1931967Y-16274579D02*
X1941491Y-16255531D01*
X1941491Y-16255531D02*
X1951015Y-16246008D01*
X1951015Y-16246008D02*
X1970062Y-16236484D01*
X2160539Y-16236484D02*
X2179586Y-16236484D01*
X2179586Y-16236484D02*
X2198634Y-16246008D01*
X2198634Y-16246008D02*
X2208158Y-16255531D01*
X2208158Y-16255531D02*
X2217682Y-16274579D01*
X2217682Y-16274579D02*
X2227205Y-16312674D01*
X2227205Y-16312674D02*
X2227205Y-16360293D01*
X2227205Y-16360293D02*
X2217682Y-16398388D01*
X2217682Y-16398388D02*
X2208158Y-16417436D01*
X2208158Y-16417436D02*
X2198634Y-16426960D01*
X2198634Y-16426960D02*
X2179586Y-16436484D01*
X2179586Y-16436484D02*
X2160539Y-16436484D01*
X2160539Y-16436484D02*
X2141491Y-16426960D01*
X2141491Y-16426960D02*
X2131967Y-16417436D01*
X2131967Y-16417436D02*
X2122444Y-16398388D01*
X2122444Y-16398388D02*
X2112920Y-16360293D01*
X2112920Y-16360293D02*
X2112920Y-16312674D01*
X2112920Y-16312674D02*
X2122444Y-16274579D01*
X2122444Y-16274579D02*
X2131967Y-16255531D01*
X2131967Y-16255531D02*
X2141491Y-16246008D01*
X2141491Y-16246008D02*
X2160539Y-16236484D01*
X2312920Y-16436484D02*
X2312920Y-16303150D01*
X2312920Y-16322198D02*
X2322444Y-16312674D01*
X2322444Y-16312674D02*
X2341491Y-16303150D01*
X2341491Y-16303150D02*
X2370063Y-16303150D01*
X2370063Y-16303150D02*
X2389110Y-16312674D01*
X2389110Y-16312674D02*
X2398634Y-16331722D01*
X2398634Y-16331722D02*
X2398634Y-16436484D01*
X2398634Y-16331722D02*
X2408158Y-16312674D01*
X2408158Y-16312674D02*
X2427205Y-16303150D01*
X2427205Y-16303150D02*
X2455777Y-16303150D01*
X2455777Y-16303150D02*
X2474825Y-16312674D01*
X2474825Y-16312674D02*
X2484348Y-16331722D01*
X2484348Y-16331722D02*
X2484348Y-16436484D01*
X2579586Y-16436484D02*
X2579586Y-16303150D01*
X2579586Y-16322198D02*
X2589110Y-16312674D01*
X2589110Y-16312674D02*
X2608158Y-16303150D01*
X2608158Y-16303150D02*
X2636729Y-16303150D01*
X2636729Y-16303150D02*
X2655777Y-16312674D01*
X2655777Y-16312674D02*
X2665301Y-16331722D01*
X2665301Y-16331722D02*
X2665301Y-16436484D01*
X2665301Y-16331722D02*
X2674825Y-16312674D01*
X2674825Y-16312674D02*
X2693872Y-16303150D01*
X2693872Y-16303150D02*
X2722444Y-16303150D01*
X2722444Y-16303150D02*
X2741491Y-16312674D01*
X2741491Y-16312674D02*
X2751015Y-16331722D01*
X2751015Y-16331722D02*
X2751015Y-16436484D01*
X3141491Y-16226960D02*
X2970063Y-16484103D01*
X3398634Y-16236484D02*
X3417682Y-16236484D01*
X3417682Y-16236484D02*
X3436729Y-16246008D01*
X3436729Y-16246008D02*
X3446253Y-16255531D01*
X3446253Y-16255531D02*
X3455777Y-16274579D01*
X3455777Y-16274579D02*
X3465301Y-16312674D01*
X3465301Y-16312674D02*
X3465301Y-16360293D01*
X3465301Y-16360293D02*
X3455777Y-16398388D01*
X3455777Y-16398388D02*
X3446253Y-16417436D01*
X3446253Y-16417436D02*
X3436729Y-16426960D01*
X3436729Y-16426960D02*
X3417682Y-16436484D01*
X3417682Y-16436484D02*
X3398634Y-16436484D01*
X3398634Y-16436484D02*
X3379586Y-16426960D01*
X3379586Y-16426960D02*
X3370063Y-16417436D01*
X3370063Y-16417436D02*
X3360539Y-16398388D01*
X3360539Y-16398388D02*
X3351015Y-16360293D01*
X3351015Y-16360293D02*
X3351015Y-16312674D01*
X3351015Y-16312674D02*
X3360539Y-16274579D01*
X3360539Y-16274579D02*
X3370063Y-16255531D01*
X3370063Y-16255531D02*
X3379586Y-16246008D01*
X3379586Y-16246008D02*
X3398634Y-16236484D01*
X3551015Y-16417436D02*
X3560539Y-16426960D01*
X3560539Y-16426960D02*
X3551015Y-16436484D01*
X3551015Y-16436484D02*
X3541491Y-16426960D01*
X3541491Y-16426960D02*
X3551015Y-16417436D01*
X3551015Y-16417436D02*
X3551015Y-16436484D01*
X3684348Y-16236484D02*
X3703396Y-16236484D01*
X3703396Y-16236484D02*
X3722444Y-16246008D01*
X3722444Y-16246008D02*
X3731967Y-16255531D01*
X3731967Y-16255531D02*
X3741491Y-16274579D01*
X3741491Y-16274579D02*
X3751015Y-16312674D01*
X3751015Y-16312674D02*
X3751015Y-16360293D01*
X3751015Y-16360293D02*
X3741491Y-16398388D01*
X3741491Y-16398388D02*
X3731967Y-16417436D01*
X3731967Y-16417436D02*
X3722444Y-16426960D01*
X3722444Y-16426960D02*
X3703396Y-16436484D01*
X3703396Y-16436484D02*
X3684348Y-16436484D01*
X3684348Y-16436484D02*
X3665301Y-16426960D01*
X3665301Y-16426960D02*
X3655777Y-16417436D01*
X3655777Y-16417436D02*
X3646253Y-16398388D01*
X3646253Y-16398388D02*
X3636729Y-16360293D01*
X3636729Y-16360293D02*
X3636729Y-16312674D01*
X3636729Y-16312674D02*
X3646253Y-16274579D01*
X3646253Y-16274579D02*
X3655777Y-16255531D01*
X3655777Y-16255531D02*
X3665301Y-16246008D01*
X3665301Y-16246008D02*
X3684348Y-16236484D01*
X3817682Y-16236484D02*
X3941491Y-16236484D01*
X3941491Y-16236484D02*
X3874825Y-16312674D01*
X3874825Y-16312674D02*
X3903396Y-16312674D01*
X3903396Y-16312674D02*
X3922444Y-16322198D01*
X3922444Y-16322198D02*
X3931967Y-16331722D01*
X3931967Y-16331722D02*
X3941491Y-16350769D01*
X3941491Y-16350769D02*
X3941491Y-16398388D01*
X3941491Y-16398388D02*
X3931967Y-16417436D01*
X3931967Y-16417436D02*
X3922444Y-16426960D01*
X3922444Y-16426960D02*
X3903396Y-16436484D01*
X3903396Y-16436484D02*
X3846253Y-16436484D01*
X3846253Y-16436484D02*
X3827206Y-16426960D01*
X3827206Y-16426960D02*
X3817682Y-16417436D01*
X4122444Y-16236484D02*
X4027206Y-16236484D01*
X4027206Y-16236484D02*
X4017682Y-16331722D01*
X4017682Y-16331722D02*
X4027206Y-16322198D01*
X4027206Y-16322198D02*
X4046253Y-16312674D01*
X4046253Y-16312674D02*
X4093872Y-16312674D01*
X4093872Y-16312674D02*
X4112920Y-16322198D01*
X4112920Y-16322198D02*
X4122444Y-16331722D01*
X4122444Y-16331722D02*
X4131967Y-16350769D01*
X4131967Y-16350769D02*
X4131967Y-16398388D01*
X4131967Y-16398388D02*
X4122444Y-16417436D01*
X4122444Y-16417436D02*
X4112920Y-16426960D01*
X4112920Y-16426960D02*
X4093872Y-16436484D01*
X4093872Y-16436484D02*
X4046253Y-16436484D01*
X4046253Y-16436484D02*
X4027206Y-16426960D01*
X4027206Y-16426960D02*
X4017682Y-16417436D01*
X4303396Y-16303150D02*
X4303396Y-16436484D01*
X4255777Y-16226960D02*
X4208158Y-16369817D01*
X4208158Y-16369817D02*
X4331968Y-16369817D01*
X4398634Y-16236484D02*
X4398634Y-16274579D01*
X4474825Y-16236484D02*
X4474825Y-16274579D01*
X4770063Y-16512674D02*
X4760539Y-16503150D01*
X4760539Y-16503150D02*
X4741491Y-16474579D01*
X4741491Y-16474579D02*
X4731968Y-16455531D01*
X4731968Y-16455531D02*
X4722444Y-16426960D01*
X4722444Y-16426960D02*
X4712920Y-16379341D01*
X4712920Y-16379341D02*
X4712920Y-16341246D01*
X4712920Y-16341246D02*
X4722444Y-16293627D01*
X4722444Y-16293627D02*
X4731968Y-16265055D01*
X4731968Y-16265055D02*
X4741491Y-16246008D01*
X4741491Y-16246008D02*
X4760539Y-16217436D01*
X4760539Y-16217436D02*
X4770063Y-16207912D01*
X4836730Y-16255531D02*
X4846253Y-16246008D01*
X4846253Y-16246008D02*
X4865301Y-16236484D01*
X4865301Y-16236484D02*
X4912920Y-16236484D01*
X4912920Y-16236484D02*
X4931968Y-16246008D01*
X4931968Y-16246008D02*
X4941491Y-16255531D01*
X4941491Y-16255531D02*
X4951015Y-16274579D01*
X4951015Y-16274579D02*
X4951015Y-16293627D01*
X4951015Y-16293627D02*
X4941491Y-16322198D01*
X4941491Y-16322198D02*
X4827206Y-16436484D01*
X4827206Y-16436484D02*
X4951015Y-16436484D01*
X5189111Y-16436484D02*
X5189111Y-16236484D01*
X5274825Y-16436484D02*
X5274825Y-16331722D01*
X5274825Y-16331722D02*
X5265301Y-16312674D01*
X5265301Y-16312674D02*
X5246253Y-16303150D01*
X5246253Y-16303150D02*
X5217682Y-16303150D01*
X5217682Y-16303150D02*
X5198634Y-16312674D01*
X5198634Y-16312674D02*
X5189111Y-16322198D01*
X5398634Y-16436484D02*
X5379587Y-16426960D01*
X5379587Y-16426960D02*
X5370063Y-16417436D01*
X5370063Y-16417436D02*
X5360539Y-16398388D01*
X5360539Y-16398388D02*
X5360539Y-16341246D01*
X5360539Y-16341246D02*
X5370063Y-16322198D01*
X5370063Y-16322198D02*
X5379587Y-16312674D01*
X5379587Y-16312674D02*
X5398634Y-16303150D01*
X5398634Y-16303150D02*
X5427206Y-16303150D01*
X5427206Y-16303150D02*
X5446253Y-16312674D01*
X5446253Y-16312674D02*
X5455777Y-16322198D01*
X5455777Y-16322198D02*
X5465301Y-16341246D01*
X5465301Y-16341246D02*
X5465301Y-16398388D01*
X5465301Y-16398388D02*
X5455777Y-16417436D01*
X5455777Y-16417436D02*
X5446253Y-16426960D01*
X5446253Y-16426960D02*
X5427206Y-16436484D01*
X5427206Y-16436484D02*
X5398634Y-16436484D01*
X5579587Y-16436484D02*
X5560539Y-16426960D01*
X5560539Y-16426960D02*
X5551015Y-16407912D01*
X5551015Y-16407912D02*
X5551015Y-16236484D01*
X5731968Y-16426960D02*
X5712920Y-16436484D01*
X5712920Y-16436484D02*
X5674825Y-16436484D01*
X5674825Y-16436484D02*
X5655777Y-16426960D01*
X5655777Y-16426960D02*
X5646253Y-16407912D01*
X5646253Y-16407912D02*
X5646253Y-16331722D01*
X5646253Y-16331722D02*
X5655777Y-16312674D01*
X5655777Y-16312674D02*
X5674825Y-16303150D01*
X5674825Y-16303150D02*
X5712920Y-16303150D01*
X5712920Y-16303150D02*
X5731968Y-16312674D01*
X5731968Y-16312674D02*
X5741491Y-16331722D01*
X5741491Y-16331722D02*
X5741491Y-16350769D01*
X5741491Y-16350769D02*
X5646253Y-16369817D01*
X5817682Y-16426960D02*
X5836730Y-16436484D01*
X5836730Y-16436484D02*
X5874825Y-16436484D01*
X5874825Y-16436484D02*
X5893872Y-16426960D01*
X5893872Y-16426960D02*
X5903396Y-16407912D01*
X5903396Y-16407912D02*
X5903396Y-16398388D01*
X5903396Y-16398388D02*
X5893872Y-16379341D01*
X5893872Y-16379341D02*
X5874825Y-16369817D01*
X5874825Y-16369817D02*
X5846253Y-16369817D01*
X5846253Y-16369817D02*
X5827206Y-16360293D01*
X5827206Y-16360293D02*
X5817682Y-16341246D01*
X5817682Y-16341246D02*
X5817682Y-16331722D01*
X5817682Y-16331722D02*
X5827206Y-16312674D01*
X5827206Y-16312674D02*
X5846253Y-16303150D01*
X5846253Y-16303150D02*
X5874825Y-16303150D01*
X5874825Y-16303150D02*
X5893872Y-16312674D01*
X5970063Y-16512674D02*
X5979587Y-16503150D01*
X5979587Y-16503150D02*
X5998634Y-16474579D01*
X5998634Y-16474579D02*
X6008158Y-16455531D01*
X6008158Y-16455531D02*
X6017682Y-16426960D01*
X6017682Y-16426960D02*
X6027206Y-16379341D01*
X6027206Y-16379341D02*
X6027206Y-16341246D01*
X6027206Y-16341246D02*
X6017682Y-16293627D01*
X6017682Y-16293627D02*
X6008158Y-16265055D01*
X6008158Y-16265055D02*
X5998634Y-16246008D01*
X5998634Y-16246008D02*
X5979587Y-16217436D01*
X5979587Y-16217436D02*
X5970063Y-16207912D01*
X6331968Y-16512674D02*
X6322444Y-16503150D01*
X6322444Y-16503150D02*
X6303396Y-16474579D01*
X6303396Y-16474579D02*
X6293872Y-16455531D01*
X6293872Y-16455531D02*
X6284349Y-16426960D01*
X6284349Y-16426960D02*
X6274825Y-16379341D01*
X6274825Y-16379341D02*
X6274825Y-16341246D01*
X6274825Y-16341246D02*
X6284349Y-16293627D01*
X6284349Y-16293627D02*
X6293872Y-16265055D01*
X6293872Y-16265055D02*
X6303396Y-16246008D01*
X6303396Y-16246008D02*
X6322444Y-16217436D01*
X6322444Y-16217436D02*
X6331968Y-16207912D01*
X6408158Y-16303150D02*
X6408158Y-16436484D01*
X6408158Y-16322198D02*
X6417682Y-16312674D01*
X6417682Y-16312674D02*
X6436730Y-16303150D01*
X6436730Y-16303150D02*
X6465301Y-16303150D01*
X6465301Y-16303150D02*
X6484349Y-16312674D01*
X6484349Y-16312674D02*
X6493872Y-16331722D01*
X6493872Y-16331722D02*
X6493872Y-16436484D01*
X6617682Y-16436484D02*
X6598634Y-16426960D01*
X6598634Y-16426960D02*
X6589111Y-16417436D01*
X6589111Y-16417436D02*
X6579587Y-16398388D01*
X6579587Y-16398388D02*
X6579587Y-16341246D01*
X6579587Y-16341246D02*
X6589111Y-16322198D01*
X6589111Y-16322198D02*
X6598634Y-16312674D01*
X6598634Y-16312674D02*
X6617682Y-16303150D01*
X6617682Y-16303150D02*
X6646253Y-16303150D01*
X6646253Y-16303150D02*
X6665301Y-16312674D01*
X6665301Y-16312674D02*
X6674825Y-16322198D01*
X6674825Y-16322198D02*
X6684349Y-16341246D01*
X6684349Y-16341246D02*
X6684349Y-16398388D01*
X6684349Y-16398388D02*
X6674825Y-16417436D01*
X6674825Y-16417436D02*
X6665301Y-16426960D01*
X6665301Y-16426960D02*
X6646253Y-16436484D01*
X6646253Y-16436484D02*
X6617682Y-16436484D01*
X6741492Y-16303150D02*
X6817682Y-16303150D01*
X6770063Y-16236484D02*
X6770063Y-16407912D01*
X6770063Y-16407912D02*
X6779587Y-16426960D01*
X6779587Y-16426960D02*
X6798634Y-16436484D01*
X6798634Y-16436484D02*
X6817682Y-16436484D01*
X7036730Y-16303150D02*
X7036730Y-16503150D01*
X7036730Y-16312674D02*
X7055777Y-16303150D01*
X7055777Y-16303150D02*
X7093873Y-16303150D01*
X7093873Y-16303150D02*
X7112920Y-16312674D01*
X7112920Y-16312674D02*
X7122444Y-16322198D01*
X7122444Y-16322198D02*
X7131968Y-16341246D01*
X7131968Y-16341246D02*
X7131968Y-16398388D01*
X7131968Y-16398388D02*
X7122444Y-16417436D01*
X7122444Y-16417436D02*
X7112920Y-16426960D01*
X7112920Y-16426960D02*
X7093873Y-16436484D01*
X7093873Y-16436484D02*
X7055777Y-16436484D01*
X7055777Y-16436484D02*
X7036730Y-16426960D01*
X7246253Y-16436484D02*
X7227206Y-16426960D01*
X7227206Y-16426960D02*
X7217682Y-16407912D01*
X7217682Y-16407912D02*
X7217682Y-16236484D01*
X7408158Y-16436484D02*
X7408158Y-16331722D01*
X7408158Y-16331722D02*
X7398634Y-16312674D01*
X7398634Y-16312674D02*
X7379587Y-16303150D01*
X7379587Y-16303150D02*
X7341492Y-16303150D01*
X7341492Y-16303150D02*
X7322444Y-16312674D01*
X7408158Y-16426960D02*
X7389111Y-16436484D01*
X7389111Y-16436484D02*
X7341492Y-16436484D01*
X7341492Y-16436484D02*
X7322444Y-16426960D01*
X7322444Y-16426960D02*
X7312920Y-16407912D01*
X7312920Y-16407912D02*
X7312920Y-16388865D01*
X7312920Y-16388865D02*
X7322444Y-16369817D01*
X7322444Y-16369817D02*
X7341492Y-16360293D01*
X7341492Y-16360293D02*
X7389111Y-16360293D01*
X7389111Y-16360293D02*
X7408158Y-16350769D01*
X7474825Y-16303150D02*
X7551015Y-16303150D01*
X7503396Y-16236484D02*
X7503396Y-16407912D01*
X7503396Y-16407912D02*
X7512920Y-16426960D01*
X7512920Y-16426960D02*
X7531968Y-16436484D01*
X7531968Y-16436484D02*
X7551015Y-16436484D01*
X7693873Y-16426960D02*
X7674825Y-16436484D01*
X7674825Y-16436484D02*
X7636730Y-16436484D01*
X7636730Y-16436484D02*
X7617682Y-16426960D01*
X7617682Y-16426960D02*
X7608158Y-16407912D01*
X7608158Y-16407912D02*
X7608158Y-16331722D01*
X7608158Y-16331722D02*
X7617682Y-16312674D01*
X7617682Y-16312674D02*
X7636730Y-16303150D01*
X7636730Y-16303150D02*
X7674825Y-16303150D01*
X7674825Y-16303150D02*
X7693873Y-16312674D01*
X7693873Y-16312674D02*
X7703396Y-16331722D01*
X7703396Y-16331722D02*
X7703396Y-16350769D01*
X7703396Y-16350769D02*
X7608158Y-16369817D01*
X7874825Y-16436484D02*
X7874825Y-16236484D01*
X7874825Y-16426960D02*
X7855777Y-16436484D01*
X7855777Y-16436484D02*
X7817682Y-16436484D01*
X7817682Y-16436484D02*
X7798634Y-16426960D01*
X7798634Y-16426960D02*
X7789111Y-16417436D01*
X7789111Y-16417436D02*
X7779587Y-16398388D01*
X7779587Y-16398388D02*
X7779587Y-16341246D01*
X7779587Y-16341246D02*
X7789111Y-16322198D01*
X7789111Y-16322198D02*
X7798634Y-16312674D01*
X7798634Y-16312674D02*
X7817682Y-16303150D01*
X7817682Y-16303150D02*
X7855777Y-16303150D01*
X7855777Y-16303150D02*
X7874825Y-16312674D01*
X7951015Y-16512674D02*
X7960539Y-16503150D01*
X7960539Y-16503150D02*
X7979587Y-16474579D01*
X7979587Y-16474579D02*
X7989111Y-16455531D01*
X7989111Y-16455531D02*
X7998634Y-16426960D01*
X7998634Y-16426960D02*
X8008158Y-16379341D01*
X8008158Y-16379341D02*
X8008158Y-16341246D01*
X8008158Y-16341246D02*
X7998634Y-16293627D01*
X7998634Y-16293627D02*
X7989111Y-16265055D01*
X7989111Y-16265055D02*
X7979587Y-16246008D01*
X7979587Y-16246008D02*
X7960539Y-16217436D01*
X7960539Y-16217436D02*
X7951015Y-16207912D01*
X1195000Y-16609000D02*
G75*
G03*
X995000Y-16609000I-100000J0D01*
G01*
X995000Y-16609000D02*
G75*
G03*
X1195000Y-16609000I100000J0D01*
G01*
X1436729Y-16500484D02*
X1560539Y-16500484D01*
X1560539Y-16500484D02*
X1493872Y-16576674D01*
X1493872Y-16576674D02*
X1522443Y-16576674D01*
X1522443Y-16576674D02*
X1541491Y-16586198D01*
X1541491Y-16586198D02*
X1551015Y-16595722D01*
X1551015Y-16595722D02*
X1560539Y-16614769D01*
X1560539Y-16614769D02*
X1560539Y-16662388D01*
X1560539Y-16662388D02*
X1551015Y-16681436D01*
X1551015Y-16681436D02*
X1541491Y-16690960D01*
X1541491Y-16690960D02*
X1522443Y-16700484D01*
X1522443Y-16700484D02*
X1465301Y-16700484D01*
X1465301Y-16700484D02*
X1446253Y-16690960D01*
X1446253Y-16690960D02*
X1436729Y-16681436D01*
X1646253Y-16681436D02*
X1655777Y-16690960D01*
X1655777Y-16690960D02*
X1646253Y-16700484D01*
X1646253Y-16700484D02*
X1636729Y-16690960D01*
X1636729Y-16690960D02*
X1646253Y-16681436D01*
X1646253Y-16681436D02*
X1646253Y-16700484D01*
X1731967Y-16519531D02*
X1741491Y-16510008D01*
X1741491Y-16510008D02*
X1760539Y-16500484D01*
X1760539Y-16500484D02*
X1808158Y-16500484D01*
X1808158Y-16500484D02*
X1827205Y-16510008D01*
X1827205Y-16510008D02*
X1836729Y-16519531D01*
X1836729Y-16519531D02*
X1846253Y-16538579D01*
X1846253Y-16538579D02*
X1846253Y-16557627D01*
X1846253Y-16557627D02*
X1836729Y-16586198D01*
X1836729Y-16586198D02*
X1722443Y-16700484D01*
X1722443Y-16700484D02*
X1846253Y-16700484D01*
X1970062Y-16500484D02*
X1989110Y-16500484D01*
X1989110Y-16500484D02*
X2008158Y-16510008D01*
X2008158Y-16510008D02*
X2017682Y-16519531D01*
X2017682Y-16519531D02*
X2027205Y-16538579D01*
X2027205Y-16538579D02*
X2036729Y-16576674D01*
X2036729Y-16576674D02*
X2036729Y-16624293D01*
X2036729Y-16624293D02*
X2027205Y-16662388D01*
X2027205Y-16662388D02*
X2017682Y-16681436D01*
X2017682Y-16681436D02*
X2008158Y-16690960D01*
X2008158Y-16690960D02*
X1989110Y-16700484D01*
X1989110Y-16700484D02*
X1970062Y-16700484D01*
X1970062Y-16700484D02*
X1951015Y-16690960D01*
X1951015Y-16690960D02*
X1941491Y-16681436D01*
X1941491Y-16681436D02*
X1931967Y-16662388D01*
X1931967Y-16662388D02*
X1922443Y-16624293D01*
X1922443Y-16624293D02*
X1922443Y-16576674D01*
X1922443Y-16576674D02*
X1931967Y-16538579D01*
X1931967Y-16538579D02*
X1941491Y-16519531D01*
X1941491Y-16519531D02*
X1951015Y-16510008D01*
X1951015Y-16510008D02*
X1970062Y-16500484D01*
X2160539Y-16500484D02*
X2179586Y-16500484D01*
X2179586Y-16500484D02*
X2198634Y-16510008D01*
X2198634Y-16510008D02*
X2208158Y-16519531D01*
X2208158Y-16519531D02*
X2217682Y-16538579D01*
X2217682Y-16538579D02*
X2227205Y-16576674D01*
X2227205Y-16576674D02*
X2227205Y-16624293D01*
X2227205Y-16624293D02*
X2217682Y-16662388D01*
X2217682Y-16662388D02*
X2208158Y-16681436D01*
X2208158Y-16681436D02*
X2198634Y-16690960D01*
X2198634Y-16690960D02*
X2179586Y-16700484D01*
X2179586Y-16700484D02*
X2160539Y-16700484D01*
X2160539Y-16700484D02*
X2141491Y-16690960D01*
X2141491Y-16690960D02*
X2131967Y-16681436D01*
X2131967Y-16681436D02*
X2122444Y-16662388D01*
X2122444Y-16662388D02*
X2112920Y-16624293D01*
X2112920Y-16624293D02*
X2112920Y-16576674D01*
X2112920Y-16576674D02*
X2122444Y-16538579D01*
X2122444Y-16538579D02*
X2131967Y-16519531D01*
X2131967Y-16519531D02*
X2141491Y-16510008D01*
X2141491Y-16510008D02*
X2160539Y-16500484D01*
X2312920Y-16700484D02*
X2312920Y-16567150D01*
X2312920Y-16586198D02*
X2322444Y-16576674D01*
X2322444Y-16576674D02*
X2341491Y-16567150D01*
X2341491Y-16567150D02*
X2370063Y-16567150D01*
X2370063Y-16567150D02*
X2389110Y-16576674D01*
X2389110Y-16576674D02*
X2398634Y-16595722D01*
X2398634Y-16595722D02*
X2398634Y-16700484D01*
X2398634Y-16595722D02*
X2408158Y-16576674D01*
X2408158Y-16576674D02*
X2427205Y-16567150D01*
X2427205Y-16567150D02*
X2455777Y-16567150D01*
X2455777Y-16567150D02*
X2474825Y-16576674D01*
X2474825Y-16576674D02*
X2484348Y-16595722D01*
X2484348Y-16595722D02*
X2484348Y-16700484D01*
X2579586Y-16700484D02*
X2579586Y-16567150D01*
X2579586Y-16586198D02*
X2589110Y-16576674D01*
X2589110Y-16576674D02*
X2608158Y-16567150D01*
X2608158Y-16567150D02*
X2636729Y-16567150D01*
X2636729Y-16567150D02*
X2655777Y-16576674D01*
X2655777Y-16576674D02*
X2665301Y-16595722D01*
X2665301Y-16595722D02*
X2665301Y-16700484D01*
X2665301Y-16595722D02*
X2674825Y-16576674D01*
X2674825Y-16576674D02*
X2693872Y-16567150D01*
X2693872Y-16567150D02*
X2722444Y-16567150D01*
X2722444Y-16567150D02*
X2741491Y-16576674D01*
X2741491Y-16576674D02*
X2751015Y-16595722D01*
X2751015Y-16595722D02*
X2751015Y-16700484D01*
X3141491Y-16490960D02*
X2970063Y-16748103D01*
X3398634Y-16500484D02*
X3417682Y-16500484D01*
X3417682Y-16500484D02*
X3436729Y-16510008D01*
X3436729Y-16510008D02*
X3446253Y-16519531D01*
X3446253Y-16519531D02*
X3455777Y-16538579D01*
X3455777Y-16538579D02*
X3465301Y-16576674D01*
X3465301Y-16576674D02*
X3465301Y-16624293D01*
X3465301Y-16624293D02*
X3455777Y-16662388D01*
X3455777Y-16662388D02*
X3446253Y-16681436D01*
X3446253Y-16681436D02*
X3436729Y-16690960D01*
X3436729Y-16690960D02*
X3417682Y-16700484D01*
X3417682Y-16700484D02*
X3398634Y-16700484D01*
X3398634Y-16700484D02*
X3379586Y-16690960D01*
X3379586Y-16690960D02*
X3370063Y-16681436D01*
X3370063Y-16681436D02*
X3360539Y-16662388D01*
X3360539Y-16662388D02*
X3351015Y-16624293D01*
X3351015Y-16624293D02*
X3351015Y-16576674D01*
X3351015Y-16576674D02*
X3360539Y-16538579D01*
X3360539Y-16538579D02*
X3370063Y-16519531D01*
X3370063Y-16519531D02*
X3379586Y-16510008D01*
X3379586Y-16510008D02*
X3398634Y-16500484D01*
X3551015Y-16681436D02*
X3560539Y-16690960D01*
X3560539Y-16690960D02*
X3551015Y-16700484D01*
X3551015Y-16700484D02*
X3541491Y-16690960D01*
X3541491Y-16690960D02*
X3551015Y-16681436D01*
X3551015Y-16681436D02*
X3551015Y-16700484D01*
X3751015Y-16700484D02*
X3636729Y-16700484D01*
X3693872Y-16700484D02*
X3693872Y-16500484D01*
X3693872Y-16500484D02*
X3674825Y-16529055D01*
X3674825Y-16529055D02*
X3655777Y-16548103D01*
X3655777Y-16548103D02*
X3636729Y-16557627D01*
X3827206Y-16519531D02*
X3836729Y-16510008D01*
X3836729Y-16510008D02*
X3855777Y-16500484D01*
X3855777Y-16500484D02*
X3903396Y-16500484D01*
X3903396Y-16500484D02*
X3922444Y-16510008D01*
X3922444Y-16510008D02*
X3931967Y-16519531D01*
X3931967Y-16519531D02*
X3941491Y-16538579D01*
X3941491Y-16538579D02*
X3941491Y-16557627D01*
X3941491Y-16557627D02*
X3931967Y-16586198D01*
X3931967Y-16586198D02*
X3817682Y-16700484D01*
X3817682Y-16700484D02*
X3941491Y-16700484D01*
X4112920Y-16500484D02*
X4074825Y-16500484D01*
X4074825Y-16500484D02*
X4055777Y-16510008D01*
X4055777Y-16510008D02*
X4046253Y-16519531D01*
X4046253Y-16519531D02*
X4027206Y-16548103D01*
X4027206Y-16548103D02*
X4017682Y-16586198D01*
X4017682Y-16586198D02*
X4017682Y-16662388D01*
X4017682Y-16662388D02*
X4027206Y-16681436D01*
X4027206Y-16681436D02*
X4036729Y-16690960D01*
X4036729Y-16690960D02*
X4055777Y-16700484D01*
X4055777Y-16700484D02*
X4093872Y-16700484D01*
X4093872Y-16700484D02*
X4112920Y-16690960D01*
X4112920Y-16690960D02*
X4122444Y-16681436D01*
X4122444Y-16681436D02*
X4131967Y-16662388D01*
X4131967Y-16662388D02*
X4131967Y-16614769D01*
X4131967Y-16614769D02*
X4122444Y-16595722D01*
X4122444Y-16595722D02*
X4112920Y-16586198D01*
X4112920Y-16586198D02*
X4093872Y-16576674D01*
X4093872Y-16576674D02*
X4055777Y-16576674D01*
X4055777Y-16576674D02*
X4036729Y-16586198D01*
X4036729Y-16586198D02*
X4027206Y-16595722D01*
X4027206Y-16595722D02*
X4017682Y-16614769D01*
X4255777Y-16500484D02*
X4274825Y-16500484D01*
X4274825Y-16500484D02*
X4293872Y-16510008D01*
X4293872Y-16510008D02*
X4303396Y-16519531D01*
X4303396Y-16519531D02*
X4312920Y-16538579D01*
X4312920Y-16538579D02*
X4322444Y-16576674D01*
X4322444Y-16576674D02*
X4322444Y-16624293D01*
X4322444Y-16624293D02*
X4312920Y-16662388D01*
X4312920Y-16662388D02*
X4303396Y-16681436D01*
X4303396Y-16681436D02*
X4293872Y-16690960D01*
X4293872Y-16690960D02*
X4274825Y-16700484D01*
X4274825Y-16700484D02*
X4255777Y-16700484D01*
X4255777Y-16700484D02*
X4236729Y-16690960D01*
X4236729Y-16690960D02*
X4227206Y-16681436D01*
X4227206Y-16681436D02*
X4217682Y-16662388D01*
X4217682Y-16662388D02*
X4208158Y-16624293D01*
X4208158Y-16624293D02*
X4208158Y-16576674D01*
X4208158Y-16576674D02*
X4217682Y-16538579D01*
X4217682Y-16538579D02*
X4227206Y-16519531D01*
X4227206Y-16519531D02*
X4236729Y-16510008D01*
X4236729Y-16510008D02*
X4255777Y-16500484D01*
X4398634Y-16500484D02*
X4398634Y-16538579D01*
X4474825Y-16500484D02*
X4474825Y-16538579D01*
X4770063Y-16776674D02*
X4760539Y-16767150D01*
X4760539Y-16767150D02*
X4741491Y-16738579D01*
X4741491Y-16738579D02*
X4731968Y-16719531D01*
X4731968Y-16719531D02*
X4722444Y-16690960D01*
X4722444Y-16690960D02*
X4712920Y-16643341D01*
X4712920Y-16643341D02*
X4712920Y-16605246D01*
X4712920Y-16605246D02*
X4722444Y-16557627D01*
X4722444Y-16557627D02*
X4731968Y-16529055D01*
X4731968Y-16529055D02*
X4741491Y-16510008D01*
X4741491Y-16510008D02*
X4760539Y-16481436D01*
X4760539Y-16481436D02*
X4770063Y-16471912D01*
X4931968Y-16567150D02*
X4931968Y-16700484D01*
X4884349Y-16490960D02*
X4836730Y-16633817D01*
X4836730Y-16633817D02*
X4960539Y-16633817D01*
X5189111Y-16700484D02*
X5189111Y-16500484D01*
X5274825Y-16700484D02*
X5274825Y-16595722D01*
X5274825Y-16595722D02*
X5265301Y-16576674D01*
X5265301Y-16576674D02*
X5246253Y-16567150D01*
X5246253Y-16567150D02*
X5217682Y-16567150D01*
X5217682Y-16567150D02*
X5198634Y-16576674D01*
X5198634Y-16576674D02*
X5189111Y-16586198D01*
X5398634Y-16700484D02*
X5379587Y-16690960D01*
X5379587Y-16690960D02*
X5370063Y-16681436D01*
X5370063Y-16681436D02*
X5360539Y-16662388D01*
X5360539Y-16662388D02*
X5360539Y-16605246D01*
X5360539Y-16605246D02*
X5370063Y-16586198D01*
X5370063Y-16586198D02*
X5379587Y-16576674D01*
X5379587Y-16576674D02*
X5398634Y-16567150D01*
X5398634Y-16567150D02*
X5427206Y-16567150D01*
X5427206Y-16567150D02*
X5446253Y-16576674D01*
X5446253Y-16576674D02*
X5455777Y-16586198D01*
X5455777Y-16586198D02*
X5465301Y-16605246D01*
X5465301Y-16605246D02*
X5465301Y-16662388D01*
X5465301Y-16662388D02*
X5455777Y-16681436D01*
X5455777Y-16681436D02*
X5446253Y-16690960D01*
X5446253Y-16690960D02*
X5427206Y-16700484D01*
X5427206Y-16700484D02*
X5398634Y-16700484D01*
X5579587Y-16700484D02*
X5560539Y-16690960D01*
X5560539Y-16690960D02*
X5551015Y-16671912D01*
X5551015Y-16671912D02*
X5551015Y-16500484D01*
X5731968Y-16690960D02*
X5712920Y-16700484D01*
X5712920Y-16700484D02*
X5674825Y-16700484D01*
X5674825Y-16700484D02*
X5655777Y-16690960D01*
X5655777Y-16690960D02*
X5646253Y-16671912D01*
X5646253Y-16671912D02*
X5646253Y-16595722D01*
X5646253Y-16595722D02*
X5655777Y-16576674D01*
X5655777Y-16576674D02*
X5674825Y-16567150D01*
X5674825Y-16567150D02*
X5712920Y-16567150D01*
X5712920Y-16567150D02*
X5731968Y-16576674D01*
X5731968Y-16576674D02*
X5741491Y-16595722D01*
X5741491Y-16595722D02*
X5741491Y-16614769D01*
X5741491Y-16614769D02*
X5646253Y-16633817D01*
X5817682Y-16690960D02*
X5836730Y-16700484D01*
X5836730Y-16700484D02*
X5874825Y-16700484D01*
X5874825Y-16700484D02*
X5893872Y-16690960D01*
X5893872Y-16690960D02*
X5903396Y-16671912D01*
X5903396Y-16671912D02*
X5903396Y-16662388D01*
X5903396Y-16662388D02*
X5893872Y-16643341D01*
X5893872Y-16643341D02*
X5874825Y-16633817D01*
X5874825Y-16633817D02*
X5846253Y-16633817D01*
X5846253Y-16633817D02*
X5827206Y-16624293D01*
X5827206Y-16624293D02*
X5817682Y-16605246D01*
X5817682Y-16605246D02*
X5817682Y-16595722D01*
X5817682Y-16595722D02*
X5827206Y-16576674D01*
X5827206Y-16576674D02*
X5846253Y-16567150D01*
X5846253Y-16567150D02*
X5874825Y-16567150D01*
X5874825Y-16567150D02*
X5893872Y-16576674D01*
X5970063Y-16776674D02*
X5979587Y-16767150D01*
X5979587Y-16767150D02*
X5998634Y-16738579D01*
X5998634Y-16738579D02*
X6008158Y-16719531D01*
X6008158Y-16719531D02*
X6017682Y-16690960D01*
X6017682Y-16690960D02*
X6027206Y-16643341D01*
X6027206Y-16643341D02*
X6027206Y-16605246D01*
X6027206Y-16605246D02*
X6017682Y-16557627D01*
X6017682Y-16557627D02*
X6008158Y-16529055D01*
X6008158Y-16529055D02*
X5998634Y-16510008D01*
X5998634Y-16510008D02*
X5979587Y-16481436D01*
X5979587Y-16481436D02*
X5970063Y-16471912D01*
X6331968Y-16776674D02*
X6322444Y-16767150D01*
X6322444Y-16767150D02*
X6303396Y-16738579D01*
X6303396Y-16738579D02*
X6293872Y-16719531D01*
X6293872Y-16719531D02*
X6284349Y-16690960D01*
X6284349Y-16690960D02*
X6274825Y-16643341D01*
X6274825Y-16643341D02*
X6274825Y-16605246D01*
X6274825Y-16605246D02*
X6284349Y-16557627D01*
X6284349Y-16557627D02*
X6293872Y-16529055D01*
X6293872Y-16529055D02*
X6303396Y-16510008D01*
X6303396Y-16510008D02*
X6322444Y-16481436D01*
X6322444Y-16481436D02*
X6331968Y-16471912D01*
X6408158Y-16567150D02*
X6408158Y-16700484D01*
X6408158Y-16586198D02*
X6417682Y-16576674D01*
X6417682Y-16576674D02*
X6436730Y-16567150D01*
X6436730Y-16567150D02*
X6465301Y-16567150D01*
X6465301Y-16567150D02*
X6484349Y-16576674D01*
X6484349Y-16576674D02*
X6493872Y-16595722D01*
X6493872Y-16595722D02*
X6493872Y-16700484D01*
X6617682Y-16700484D02*
X6598634Y-16690960D01*
X6598634Y-16690960D02*
X6589111Y-16681436D01*
X6589111Y-16681436D02*
X6579587Y-16662388D01*
X6579587Y-16662388D02*
X6579587Y-16605246D01*
X6579587Y-16605246D02*
X6589111Y-16586198D01*
X6589111Y-16586198D02*
X6598634Y-16576674D01*
X6598634Y-16576674D02*
X6617682Y-16567150D01*
X6617682Y-16567150D02*
X6646253Y-16567150D01*
X6646253Y-16567150D02*
X6665301Y-16576674D01*
X6665301Y-16576674D02*
X6674825Y-16586198D01*
X6674825Y-16586198D02*
X6684349Y-16605246D01*
X6684349Y-16605246D02*
X6684349Y-16662388D01*
X6684349Y-16662388D02*
X6674825Y-16681436D01*
X6674825Y-16681436D02*
X6665301Y-16690960D01*
X6665301Y-16690960D02*
X6646253Y-16700484D01*
X6646253Y-16700484D02*
X6617682Y-16700484D01*
X6741492Y-16567150D02*
X6817682Y-16567150D01*
X6770063Y-16500484D02*
X6770063Y-16671912D01*
X6770063Y-16671912D02*
X6779587Y-16690960D01*
X6779587Y-16690960D02*
X6798634Y-16700484D01*
X6798634Y-16700484D02*
X6817682Y-16700484D01*
X7036730Y-16567150D02*
X7036730Y-16767150D01*
X7036730Y-16576674D02*
X7055777Y-16567150D01*
X7055777Y-16567150D02*
X7093873Y-16567150D01*
X7093873Y-16567150D02*
X7112920Y-16576674D01*
X7112920Y-16576674D02*
X7122444Y-16586198D01*
X7122444Y-16586198D02*
X7131968Y-16605246D01*
X7131968Y-16605246D02*
X7131968Y-16662388D01*
X7131968Y-16662388D02*
X7122444Y-16681436D01*
X7122444Y-16681436D02*
X7112920Y-16690960D01*
X7112920Y-16690960D02*
X7093873Y-16700484D01*
X7093873Y-16700484D02*
X7055777Y-16700484D01*
X7055777Y-16700484D02*
X7036730Y-16690960D01*
X7246253Y-16700484D02*
X7227206Y-16690960D01*
X7227206Y-16690960D02*
X7217682Y-16671912D01*
X7217682Y-16671912D02*
X7217682Y-16500484D01*
X7408158Y-16700484D02*
X7408158Y-16595722D01*
X7408158Y-16595722D02*
X7398634Y-16576674D01*
X7398634Y-16576674D02*
X7379587Y-16567150D01*
X7379587Y-16567150D02*
X7341492Y-16567150D01*
X7341492Y-16567150D02*
X7322444Y-16576674D01*
X7408158Y-16690960D02*
X7389111Y-16700484D01*
X7389111Y-16700484D02*
X7341492Y-16700484D01*
X7341492Y-16700484D02*
X7322444Y-16690960D01*
X7322444Y-16690960D02*
X7312920Y-16671912D01*
X7312920Y-16671912D02*
X7312920Y-16652865D01*
X7312920Y-16652865D02*
X7322444Y-16633817D01*
X7322444Y-16633817D02*
X7341492Y-16624293D01*
X7341492Y-16624293D02*
X7389111Y-16624293D01*
X7389111Y-16624293D02*
X7408158Y-16614769D01*
X7474825Y-16567150D02*
X7551015Y-16567150D01*
X7503396Y-16500484D02*
X7503396Y-16671912D01*
X7503396Y-16671912D02*
X7512920Y-16690960D01*
X7512920Y-16690960D02*
X7531968Y-16700484D01*
X7531968Y-16700484D02*
X7551015Y-16700484D01*
X7693873Y-16690960D02*
X7674825Y-16700484D01*
X7674825Y-16700484D02*
X7636730Y-16700484D01*
X7636730Y-16700484D02*
X7617682Y-16690960D01*
X7617682Y-16690960D02*
X7608158Y-16671912D01*
X7608158Y-16671912D02*
X7608158Y-16595722D01*
X7608158Y-16595722D02*
X7617682Y-16576674D01*
X7617682Y-16576674D02*
X7636730Y-16567150D01*
X7636730Y-16567150D02*
X7674825Y-16567150D01*
X7674825Y-16567150D02*
X7693873Y-16576674D01*
X7693873Y-16576674D02*
X7703396Y-16595722D01*
X7703396Y-16595722D02*
X7703396Y-16614769D01*
X7703396Y-16614769D02*
X7608158Y-16633817D01*
X7874825Y-16700484D02*
X7874825Y-16500484D01*
X7874825Y-16690960D02*
X7855777Y-16700484D01*
X7855777Y-16700484D02*
X7817682Y-16700484D01*
X7817682Y-16700484D02*
X7798634Y-16690960D01*
X7798634Y-16690960D02*
X7789111Y-16681436D01*
X7789111Y-16681436D02*
X7779587Y-16662388D01*
X7779587Y-16662388D02*
X7779587Y-16605246D01*
X7779587Y-16605246D02*
X7789111Y-16586198D01*
X7789111Y-16586198D02*
X7798634Y-16576674D01*
X7798634Y-16576674D02*
X7817682Y-16567150D01*
X7817682Y-16567150D02*
X7855777Y-16567150D01*
X7855777Y-16567150D02*
X7874825Y-16576674D01*
X7951015Y-16776674D02*
X7960539Y-16767150D01*
X7960539Y-16767150D02*
X7979587Y-16738579D01*
X7979587Y-16738579D02*
X7989111Y-16719531D01*
X7989111Y-16719531D02*
X7998634Y-16690960D01*
X7998634Y-16690960D02*
X8008158Y-16643341D01*
X8008158Y-16643341D02*
X8008158Y-16605246D01*
X8008158Y-16605246D02*
X7998634Y-16557627D01*
X7998634Y-16557627D02*
X7989111Y-16529055D01*
X7989111Y-16529055D02*
X7979587Y-16510008D01*
X7979587Y-16510008D02*
X7960539Y-16481436D01*
X7960539Y-16481436D02*
X7951015Y-16471912D01*
M02*
