G04 #@! TF.GenerationSoftware,KiCad,Pcbnew,7.0.10-7.0.10~ubuntu22.04.1*
G04 #@! TF.CreationDate,2024-01-24T21:02:50+01:00*
G04 #@! TF.ProjectId,rocketry_circuit,726f636b-6574-4727-995f-636972637569,rev?*
G04 #@! TF.SameCoordinates,Original*
G04 #@! TF.FileFunction,Copper,L2,Bot*
G04 #@! TF.FilePolarity,Positive*
%FSLAX46Y46*%
G04 Gerber Fmt 4.6, Leading zero omitted, Abs format (unit mm)*
G04 Created by KiCad (PCBNEW 7.0.10-7.0.10~ubuntu22.04.1) date 2024-01-24 21:02:50*
%MOMM*%
%LPD*%
G01*
G04 APERTURE LIST*
G04 #@! TA.AperFunction,ComponentPad*
%ADD10R,1.700000X1.700000*%
G04 #@! TD*
G04 #@! TA.AperFunction,ComponentPad*
%ADD11O,1.700000X1.700000*%
G04 #@! TD*
G04 #@! TA.AperFunction,ComponentPad*
%ADD12C,1.400000*%
G04 #@! TD*
G04 #@! TA.AperFunction,ComponentPad*
%ADD13O,1.400000X1.400000*%
G04 #@! TD*
G04 #@! TA.AperFunction,ComponentPad*
%ADD14R,2.000000X2.000000*%
G04 #@! TD*
G04 #@! TA.AperFunction,ComponentPad*
%ADD15C,2.000000*%
G04 #@! TD*
G04 #@! TA.AperFunction,ComponentPad*
%ADD16R,1.600000X1.600000*%
G04 #@! TD*
G04 #@! TA.AperFunction,ComponentPad*
%ADD17O,1.600000X1.600000*%
G04 #@! TD*
G04 #@! TA.AperFunction,ViaPad*
%ADD18C,0.800000*%
G04 #@! TD*
G04 #@! TA.AperFunction,Conductor*
%ADD19C,0.250000*%
G04 #@! TD*
G04 APERTURE END LIST*
D10*
X113025000Y-147320000D03*
D11*
X115565000Y-147320000D03*
D12*
X106172000Y-84836000D03*
D13*
X111252000Y-84836000D03*
D10*
X110744000Y-112268000D03*
D11*
X113284000Y-112268000D03*
X115824000Y-112268000D03*
X118364000Y-112268000D03*
D14*
X106944000Y-72644000D03*
D15*
X114544000Y-72644000D03*
D12*
X115824000Y-84836000D03*
D13*
X120904000Y-84836000D03*
D10*
X118364000Y-106172000D03*
D11*
X115824000Y-106172000D03*
X113284000Y-106172000D03*
X110744000Y-106172000D03*
D16*
X106680000Y-119380000D03*
D17*
X106680000Y-121920000D03*
X106680000Y-124460000D03*
X106680000Y-127000000D03*
X106680000Y-129540000D03*
X106680000Y-132080000D03*
X106680000Y-134620000D03*
X106680000Y-137160000D03*
X106680000Y-139700000D03*
X106680000Y-142240000D03*
X106680000Y-144780000D03*
X106680000Y-147320000D03*
X106680000Y-149860000D03*
X106680000Y-152400000D03*
X106680000Y-154940000D03*
X121920000Y-154940000D03*
X121920000Y-152400000D03*
X121920000Y-149860000D03*
X121920000Y-147320000D03*
X121920000Y-144780000D03*
X121920000Y-142240000D03*
X121920000Y-139700000D03*
X121920000Y-137160000D03*
X121920000Y-134620000D03*
X121920000Y-132080000D03*
X121920000Y-129540000D03*
X121920000Y-127000000D03*
X121920000Y-124460000D03*
X121920000Y-121920000D03*
X121920000Y-119380000D03*
D10*
X121412000Y-65532000D03*
D11*
X121412000Y-68072000D03*
X121412000Y-70612000D03*
X121412000Y-73152000D03*
X121412000Y-75692000D03*
X121412000Y-78232000D03*
X121412000Y-80772000D03*
D10*
X122936000Y-91948000D03*
D11*
X120396000Y-91948000D03*
X117856000Y-91948000D03*
X115316000Y-91948000D03*
X112776000Y-91948000D03*
X110236000Y-91948000D03*
X107696000Y-91948000D03*
X105156000Y-91948000D03*
D18*
X117939000Y-40013100D03*
X110476000Y-55265900D03*
D19*
X106680000Y-137160000D02*
X106680000Y-136033100D01*
X113284000Y-106172000D02*
X113284000Y-107348900D01*
X108258800Y-112374100D02*
X113284000Y-107348900D01*
X108258800Y-134736100D02*
X108258800Y-112374100D01*
X106961800Y-136033100D02*
X108258800Y-134736100D01*
X106680000Y-136033100D02*
X106961800Y-136033100D01*
X106913500Y-133493100D02*
X106680000Y-133493100D01*
X107806900Y-132599700D02*
X106913500Y-133493100D01*
X107806900Y-111554500D02*
X107806900Y-132599700D01*
X112014000Y-107347400D02*
X107806900Y-111554500D01*
X112014000Y-105776500D02*
X112014000Y-107347400D01*
X112807700Y-104982800D02*
X112014000Y-105776500D01*
X113825700Y-104982800D02*
X112807700Y-104982800D01*
X114647100Y-105804200D02*
X113825700Y-104982800D01*
X114647100Y-106172000D02*
X114647100Y-105804200D01*
X115824000Y-106172000D02*
X114647100Y-106172000D01*
X106680000Y-134620000D02*
X106680000Y-133493100D01*
X110476000Y-47476100D02*
X117939000Y-40013100D01*
X110476000Y-55265900D02*
X110476000Y-47476100D01*
X117856000Y-91948000D02*
X117856000Y-93124900D01*
X115824000Y-112268000D02*
X115824000Y-111091100D01*
X121920000Y-134620000D02*
X121920000Y-133493100D01*
X119540900Y-94809800D02*
X117856000Y-93124900D01*
X119540900Y-108379900D02*
X119540900Y-94809800D01*
X117847100Y-110073700D02*
X119540900Y-108379900D01*
X123554000Y-115780600D02*
X117847100Y-110073700D01*
X123554000Y-132140800D02*
X123554000Y-115780600D01*
X122201700Y-133493100D02*
X123554000Y-132140800D01*
X121920000Y-133493100D02*
X122201700Y-133493100D01*
X116841400Y-110073700D02*
X115824000Y-111091100D01*
X117847100Y-110073700D02*
X116841400Y-110073700D01*
X121412000Y-73152000D02*
X120235100Y-73152000D01*
X106680000Y-129540000D02*
X106680000Y-128413100D01*
X106362500Y-98957700D02*
X106362500Y-84836000D01*
X105553100Y-99767100D02*
X106362500Y-98957700D01*
X105553100Y-127568000D02*
X105553100Y-99767100D01*
X106398200Y-128413100D02*
X105553100Y-127568000D01*
X106680000Y-128413100D02*
X106398200Y-128413100D01*
X108551100Y-84836000D02*
X106362500Y-84836000D01*
X120235100Y-73152000D02*
X108551100Y-84836000D01*
X106362500Y-84836000D02*
X106172000Y-84836000D01*
X111252000Y-84836000D02*
X112278900Y-84836000D01*
X115824000Y-84836000D02*
X112278900Y-84836000D01*
X121412000Y-70612000D02*
X121412000Y-71788900D01*
X121779800Y-71788900D02*
X121412000Y-71788900D01*
X122614200Y-72623300D02*
X121779800Y-71788900D01*
X122614200Y-73630200D02*
X122614200Y-72623300D01*
X121822400Y-74422000D02*
X122614200Y-73630200D01*
X121003100Y-74422000D02*
X121822400Y-74422000D01*
X115824000Y-79601100D02*
X121003100Y-74422000D01*
X115824000Y-84836000D02*
X115824000Y-79601100D01*
X113025000Y-129120200D02*
X113025000Y-147320000D01*
X121638300Y-120506900D02*
X113025000Y-129120200D01*
X121920000Y-120506900D02*
X121638300Y-120506900D01*
X121920000Y-119380000D02*
X121920000Y-120506900D01*
X120396000Y-86370900D02*
X120904000Y-85862900D01*
X120396000Y-91948000D02*
X120396000Y-86370900D01*
X120904000Y-84836000D02*
X120904000Y-85862900D01*
X113284000Y-112268000D02*
X114460900Y-112268000D01*
X119116000Y-68072000D02*
X114544000Y-72644000D01*
X121412000Y-68072000D02*
X119116000Y-68072000D01*
X114460900Y-111252000D02*
X114460900Y-112268000D01*
X118364000Y-107348900D02*
X114460900Y-111252000D01*
X118364000Y-106172000D02*
X118364000Y-107348900D01*
X123065900Y-120774100D02*
X121920000Y-121920000D01*
X123065900Y-118920300D02*
X123065900Y-120774100D01*
X117645200Y-113499600D02*
X123065900Y-118920300D01*
X115326700Y-113499600D02*
X117645200Y-113499600D01*
X114460900Y-112633800D02*
X115326700Y-113499600D01*
X114460900Y-112268000D02*
X114460900Y-112633800D01*
X115565000Y-129120200D02*
X115565000Y-147320000D01*
X121638300Y-123046900D02*
X115565000Y-129120200D01*
X121920000Y-123046900D02*
X121638300Y-123046900D01*
X121920000Y-121920000D02*
X121920000Y-123046900D01*
X121777800Y-79408900D02*
X121412000Y-79408900D01*
X122936000Y-80567100D02*
X121777800Y-79408900D01*
X122936000Y-91948000D02*
X122936000Y-80567100D01*
X121412000Y-78232000D02*
X121412000Y-79408900D01*
M02*
